<svg width="18" height="19" viewBox="0 0 18 19" fill="none" xmlns="http://www.w3.org/2000/svg">
<path id="Vector" d="M8.99998 0.888519C6.65295 0.891097 4.40279 1.82459 2.74319 3.48419C1.08359 5.14379 0.150099 7.39395 0.147522 9.74098V17.2063C0.14799 17.574 0.29429 17.9266 0.554335 18.1866C0.81438 18.4467 1.16694 18.593 1.5347 18.5934H8.99998C11.3478 18.5934 13.5995 17.6608 15.2596 16.0006C16.9198 14.3405 17.8524 12.0888 17.8524 9.74098C17.8524 7.39316 16.9198 5.1415 15.2596 3.48134C13.5995 1.82119 11.3478 0.888519 8.99998 0.888519ZM11.4787 12.2197H5.8131C5.62527 12.2197 5.44514 12.1451 5.31233 12.0122C5.17951 11.8794 5.1049 11.6993 5.1049 11.5115C5.1049 11.3236 5.17951 11.1435 5.31233 11.0107C5.44514 10.8779 5.62527 10.8033 5.8131 10.8033H11.4787C11.6665 10.8033 11.8466 10.8779 11.9794 11.0107C12.1123 11.1435 12.1869 11.3236 12.1869 11.5115C12.1869 11.6993 12.1123 11.8794 11.9794 12.0122C11.8466 12.1451 11.6665 12.2197 11.4787 12.2197ZM11.4787 9.38688H5.8131C5.62527 9.38688 5.44514 9.31227 5.31233 9.17945C5.17951 9.04664 5.1049 8.86651 5.1049 8.67868C5.1049 8.49086 5.17951 8.31073 5.31233 8.17791C5.44514 8.0451 5.62527 7.97049 5.8131 7.97049H11.4787C11.6665 7.97049 11.8466 8.0451 11.9794 8.17791C12.1123 8.31073 12.1869 8.49086 12.1869 8.67868C12.1869 8.86651 12.1123 9.04664 11.9794 9.17945C11.8466 9.31227 11.6665 9.38688 11.4787 9.38688Z" fill="#339993"/>
</svg>
