<svg width="411" height="387" viewBox="0 0 411 387" fill="none" xmlns="http://www.w3.org/2000/svg">
<g clip-path="url(#clip0_1_121)">
<path d="M90.2071 25.4985C116.92 -0.884822 157.632 -7.83848 190.905 9.56127C203.233 16.0049 235.256 66.2211 245.335 73.7785C276.572 97.2002 342.768 83.855 383.09 145.158C423.406 206.46 438.525 360.971 297.412 371.047C231.263 375.773 202.4 379.385 190.4 381.899C166.873 386.818 142.732 388.327 118.836 385.709C64.775 379.781 -2.45211 357.051 0.0676731 280.358C3.20699 184.907 38.7598 76.3132 90.2071 25.4985Z" fill="#EAC5FB"/>
<path d="M232.049 178.13L231.164 204.571L200.302 254.277L169.434 204.571L168.534 177.724C174.88 186.135 184.532 193.38 198.958 193.38H201.936C216.128 193.38 225.702 186.364 232.049 178.13Z" fill="white"/>
<path d="M350.905 386.74H49.6927C59.0638 311.27 81.4503 265.467 90.8214 247.771C100.192 230.074 169.434 204.571 169.434 204.571L200.302 254.277L231.164 204.571C231.164 204.571 300.406 230.074 309.777 247.771C319.148 265.467 341.534 311.27 350.905 386.74Z" fill="#BB6CE0"/>
<path d="M232.064 177.724L231.164 204.571C231.164 204.571 300.406 230.074 309.777 247.771C319.148 265.467 341.534 311.27 350.905 386.74H200.151H200.447H49.6927C59.0638 311.27 81.4503 265.467 90.8214 247.771C100.192 230.074 169.434 204.571 169.434 204.571L168.534 177.724" stroke="black" stroke-linecap="round" stroke-linejoin="round"/>
<path d="M248.776 116.208C244.252 118.176 240.462 122.074 240.462 122.074C241.243 102.582 237.64 88.9298 235.782 83.3034C234.704 80.0451 232.351 77.3074 229.18 75.9906C224.942 74.2209 218.445 74.4916 210.266 84.0789C195.168 101.775 167.055 101.255 172.782 97.0909C178.509 92.9271 190.483 84.5993 182.153 84.5993C173.823 84.5993 159.767 106.46 162.89 94.4885C166.014 82.5174 159.767 91.8861 158.725 95.5295C157.715 99.0688 155.378 114.267 160.433 122.074C160.433 122.074 154.966 116.453 149.333 115.308C148.974 111.685 146.876 90.1321 147.829 82.5174C147.829 82.5174 141.581 83.194 137.937 89.622C134.293 96.05 137.937 70.0258 152.514 66.3824C152.514 66.3824 155.117 65.3415 149.391 64.821C143.664 64.3005 142.623 61.1776 151.994 59.6162C161.365 58.0547 163.447 51.8089 163.447 51.8089C163.447 51.8089 154.201 56.4933 157.783 51.8089C161.365 47.1246 175.416 35.6791 200.921 45.0374C200.624 44.8709 195.246 41.774 196.767 36.7149C196.767 36.7149 198.329 42.4402 217.591 40.8788C236.854 39.3173 258.199 53.8908 252.473 79.915C252.473 79.915 268.986 87.4776 248.776 116.208Z" fill="#17253F"/>
<path d="M243.586 152.262C243.586 152.262 241.076 166.43 232.049 178.13C225.702 186.364 216.128 193.38 201.936 193.38H198.958C184.532 193.38 174.88 186.135 168.534 177.724C159.761 166.102 157.309 152.262 157.309 152.262C134.923 143.414 138.046 127.279 138.046 127.279C142.211 103.337 160.433 122.074 160.433 122.074C155.378 114.267 157.715 99.0688 158.725 95.5295C159.766 91.8861 166.014 82.5174 162.89 94.4885C159.766 106.46 173.823 84.5993 182.153 84.5993C190.483 84.5993 178.509 92.9271 172.782 97.0909C167.055 101.255 195.168 101.775 210.266 84.0789C218.445 74.4916 224.942 74.2209 229.18 75.9905C232.351 77.3074 234.704 80.0451 235.782 83.3033C237.64 88.9298 241.243 102.582 240.462 122.074C240.462 122.074 244.252 118.176 248.776 116.208C254.165 113.861 260.584 114.262 262.848 127.279C262.848 127.279 265.972 143.414 243.586 152.262Z" fill="white"/>
<path d="M352.17 231.636C352.17 231.636 325.749 257.103 331.408 266.232C330.768 266.035 330.133 265.816 329.503 265.587C317.32 261.168 303.711 260.908 296.131 260.34C296.131 260.34 305.315 249.332 295.423 236.32C285.532 223.308 282.408 192.079 290.738 188.956C299.068 185.833 294.382 219.144 306.356 208.735C318.33 198.325 326.14 154.604 336.031 155.125C345.923 155.645 326.66 191.559 330.825 195.202C334.99 198.845 345.923 150.44 356.335 152.522C366.748 154.604 339.676 198.845 343.32 200.927C346.964 203.009 357.897 163.452 369.351 162.932C380.804 162.412 350.609 205.091 353.732 209.255C356.856 213.419 365.706 192.079 374.036 196.243C382.366 200.407 352.17 231.636 352.17 231.636Z" fill="white"/>
<path d="M343.82 267.752C342.612 268.46 338.863 267.95 335.88 267.383C334.365 267.096 332.876 266.706 331.408 266.238C330.476 264.728 330.414 262.787 330.961 260.585C334.912 262.209 345.538 266.737 343.82 267.752Z" fill="black"/>
<path d="M343.82 292.532C342.601 292.569 341.409 292.6 340.238 292.626C336.349 292.72 332.725 292.751 329.347 292.73C303.175 292.6 291.763 289.498 286.864 286.807C284.615 285.568 283.741 284.418 283.449 283.684C282.408 281.082 290.217 258.701 290.217 258.701C290.051 259.7 292.336 260.059 296.131 260.34C301.166 260.72 308.86 260.96 317.029 262.37C321.157 263.089 325.411 264.104 329.503 265.587C330.133 265.816 330.768 266.035 331.408 266.232C332.876 266.706 334.365 267.096 335.88 267.383C338.863 267.95 342.612 268.46 343.82 267.752C344.835 270.552 343.82 292.532 343.82 292.532Z" fill="#17253F"/>
<path d="M298.813 255.411C297.672 258.493 296.131 260.34 296.131 260.34C292.336 260.059 290.051 259.7 290.217 258.701C290.608 256.369 296.064 255.635 298.813 255.411Z" fill="black"/>
<path d="M344.028 386.74H266.743C271.386 334.691 286.864 286.807 286.864 286.807C291.763 289.498 303.175 292.6 329.347 292.73C332.725 292.751 336.349 292.72 340.238 292.626C340.238 292.626 341.472 314.138 342.539 338.673C343.252 355.209 343.893 373.119 344.028 386.74Z" fill="#BB6CE0"/>
<path d="M201.931 193.38C236.292 193.38 243.58 152.262 243.58 152.262C265.967 143.414 262.843 127.279 262.843 127.279C258.678 103.337 240.457 122.074 240.457 122.074C241.238 102.582 237.635 88.9297 235.776 83.3033C234.699 80.0451 232.34 77.3073 229.175 75.9905C224.937 74.2261 218.44 74.4967 210.261 84.0788C195.163 101.775 167.05 101.255 172.777 97.0909C178.503 92.927 190.478 84.5993 182.148 84.5993C173.818 84.5993 159.761 106.46 162.885 94.4885C166.009 82.5174 159.761 91.8861 158.72 95.5295C157.679 99.1728 155.372 114.267 160.433 122.074C160.433 122.074 142.211 103.337 138.046 127.279C138.046 127.279 134.923 143.414 157.309 152.262C157.309 152.262 164.598 193.38 198.958 193.38H201.931Z" stroke="black" stroke-miterlimit="10"/>
<path d="M149.417 115.313C149.417 115.313 146.788 90.8451 147.829 82.5174C147.829 82.5174 141.581 83.194 137.937 89.622C134.293 96.05 137.937 70.0258 152.514 66.3824C152.514 66.3824 155.117 65.3415 149.391 64.821C143.664 64.3005 142.623 61.1776 151.994 59.6162C161.365 58.0547 163.447 51.8089 163.447 51.8089C163.447 51.8089 154.201 56.4933 157.783 51.8089C161.365 47.1246 175.421 35.6739 200.932 45.0426C200.932 45.0426 195.205 41.9197 196.767 36.7149C196.767 36.7149 198.329 42.4402 217.591 40.8788C236.854 39.3173 258.199 53.8908 252.473 79.915C252.473 79.915 268.997 87.4828 248.761 116.229" stroke="black" stroke-miterlimit="10"/>
<path d="M146.788 122.595L154.076 140.812" stroke="black" stroke-width="1.5" stroke-miterlimit="10"/>
<path d="M254.034 122.595L246.746 140.812" stroke="black" stroke-width="1.5" stroke-miterlimit="10"/>
<path d="M184.532 163.973C184.532 163.973 200.151 175.944 215.769 164.494" stroke="black" stroke-miterlimit="10"/>
<path d="M176.499 144.195C179.518 144.195 181.966 136.621 181.966 127.279C181.966 117.937 179.518 110.363 176.499 110.363C173.48 110.363 171.033 117.937 171.033 127.279C171.033 136.621 173.48 144.195 176.499 144.195Z" fill="black"/>
<path d="M224.396 144.195C227.415 144.195 229.862 136.621 229.862 127.279C229.862 117.937 227.415 110.363 224.396 110.363C221.377 110.363 218.929 117.937 218.929 127.279C218.929 136.621 221.377 144.195 224.396 144.195Z" fill="black"/>
<path d="M164.749 111.925C164.749 111.925 170.45 97.3511 188.687 110.363" stroke="black" stroke-width="1.5" stroke-miterlimit="10"/>
<path d="M236.578 111.925C236.578 111.925 230.877 97.3511 212.64 110.363" stroke="black" stroke-width="1.5" stroke-miterlimit="10"/>
<path d="M204.316 147.838L200.151 149.816L195.986 147.838" stroke="black" stroke-linecap="round" stroke-linejoin="round"/>
<path d="M169.434 204.571L200.296 254.277L231.164 204.571" stroke="black" stroke-linecap="round" stroke-linejoin="round"/>
<path d="M108.002 286.807L116.509 386.74" stroke="black" stroke-linecap="round" stroke-linejoin="round"/>
<path d="M298.547 255.058C298.547 255.058 290.738 255.578 290.217 258.701C289.697 261.824 311.214 258.951 329.503 265.587C331.585 266.342 333.709 266.966 335.88 267.383C338.863 267.95 342.612 268.46 343.82 267.752C345.923 266.508 331.346 260.783 331.346 260.783" stroke="black" stroke-linecap="round" stroke-linejoin="round"/>
<path d="M290.217 258.701C290.217 258.701 282.408 281.082 283.449 283.684C284.49 286.287 292.773 294.094 343.82 292.532C343.82 292.532 344.84 270.552 343.82 267.752" stroke="black" stroke-linecap="round" stroke-linejoin="round"/>
<path d="M286.864 286.807C286.864 286.807 271.381 334.691 266.743 386.74" stroke="black" stroke-linecap="round" stroke-linejoin="round"/>
<path d="M340.233 292.626C340.233 292.626 343.684 352.908 344.023 386.74" stroke="black" stroke-linecap="round" stroke-linejoin="round"/>
<path d="M296.131 260.346C296.131 260.346 305.315 249.337 295.423 236.325C285.532 223.313 282.408 192.084 290.738 188.961C299.068 185.839 294.382 219.149 306.356 208.74C318.33 198.33 326.14 154.61 336.031 155.13C345.923 155.65 326.66 191.564 330.825 195.207C334.99 198.851 345.923 150.446 356.335 152.528C366.748 154.61 339.676 198.851 343.32 200.933C346.964 203.014 357.897 163.458 369.351 162.937C380.804 162.417 350.609 205.096 353.732 209.26C356.856 213.424 365.706 192.084 374.036 196.248C382.366 200.412 352.17 231.641 352.17 231.641C352.17 231.641 325.739 257.119 331.408 266.243" stroke="black" stroke-linecap="round" stroke-linejoin="round"/>
<path d="M312.604 215.501C312.604 215.501 318.33 228.513 311.562 247.771" stroke="black" stroke-linecap="round" stroke-linejoin="round"/>
<path d="M334.47 207.173C334.47 207.173 330.305 220.706 333.949 232.677" stroke="black" stroke-linecap="round" stroke-linejoin="round"/>
<path d="M315.727 154.084C315.727 154.084 321.761 144.975 331.825 147.838" stroke="black" stroke-linecap="round" stroke-linejoin="round"/>
<path d="M311.562 150.945C311.562 150.945 318.466 137.179 332.455 143.029" stroke="black" stroke-linecap="round" stroke-linejoin="round"/>
<path d="M384.985 189.836C384.985 189.836 390.93 196.852 389.264 206.601" stroke="black" stroke-linecap="round" stroke-linejoin="round"/>
<path d="M388.634 185.911C388.634 185.911 399.052 196.753 394.882 207.964" stroke="black" stroke-linecap="round" stroke-linejoin="round"/>
<path d="M39.2128 177.084C45.1114 191.595 69.2575 195.488 93.1434 185.781C94.6375 185.172 96.1005 184.532 97.5165 183.845C108.455 179.244 115.764 188.071 115.764 188.071L119.757 166.758C126.281 158.518 128.806 149.53 125.718 141.941C119.82 127.43 95.6736 123.537 71.7877 133.244C47.9019 142.951 33.3194 162.578 39.218 177.089L39.2128 177.084Z" fill="#BB6CE0"/>
<path d="M100.921 158.258C104.651 158.258 107.674 155.236 107.674 151.507C107.674 147.779 104.651 144.757 100.921 144.757C97.1922 144.757 94.169 147.779 94.169 151.507C94.169 155.236 97.1922 158.258 100.921 158.258Z" fill="white"/>
<path d="M82.3718 165.795C86.1011 165.795 89.1242 162.772 89.1242 159.044C89.1242 155.316 86.1011 152.293 82.3718 152.293C78.6426 152.293 75.6194 155.316 75.6194 159.044C75.6194 162.772 78.6426 165.795 82.3718 165.795Z" fill="white"/>
<path d="M63.8275 173.331C67.5568 173.331 70.5799 170.309 70.5799 166.581C70.5799 162.852 67.5568 159.83 63.8275 159.83C60.0983 159.83 57.0751 162.852 57.0751 166.581C57.0751 170.309 60.0983 173.331 63.8275 173.331Z" fill="white"/>
<path d="M198.157 258.04L202.821 262.709" stroke="black" stroke-width="1.2" stroke-linecap="round" stroke-linejoin="round"/>
<path d="M202.821 258.04L198.157 262.709" stroke="black" stroke-width="1.2" stroke-linecap="round" stroke-linejoin="round"/>
</g>
<defs>
<clipPath id="clip0_1_121">
<rect width="411" height="387" fill="white"/>
</clipPath>
</defs>
</svg>
