<svg width="376" height="380" viewBox="0 0 376 380" fill="none" xmlns="http://www.w3.org/2000/svg">
<path d="M219.474 6.96004C218.562 7.11391 217.712 7.52075 217.02 8.13423C216.328 8.74771 215.822 9.54318 215.56 10.43C214.44 14.766 220.056 18.43 223.96 15.584C228.524 12.238 224.8 6.06204 219.474 6.96004ZM223.204 13.866C220.884 16.02 216.804 13.93 217.266 11.124C217.39 10.5491 217.676 10.0221 218.092 9.60634C218.508 9.19054 219.035 8.90362 219.61 8.78004C222.636 8.00004 225.856 11.4 223.2 13.866H223.204Z" fill="#1D1D1B"/>
<path d="M220.554 10.51C220.341 10.51 220.132 10.5734 219.954 10.692C219.776 10.8107 219.638 10.9794 219.556 11.1767C219.475 11.3741 219.453 11.5912 219.495 11.8007C219.537 12.0102 219.639 12.2026 219.79 12.3537C219.941 12.5047 220.134 12.6076 220.343 12.6493C220.553 12.6909 220.77 12.6695 220.967 12.5878C221.165 12.5061 221.333 12.3676 221.452 12.19C221.571 12.0124 221.634 11.8036 221.634 11.59C221.634 11.4481 221.607 11.3076 221.552 11.1764C221.498 11.0453 221.419 10.9261 221.318 10.8257C221.218 10.7254 221.099 10.6459 220.968 10.5917C220.837 10.5375 220.696 10.5097 220.554 10.51Z" fill="#1D1D1B"/>
<path d="M204.094 96.714C202.921 96.5586 201.728 96.7661 200.676 97.3084C199.623 97.8508 198.762 98.7021 198.208 99.7481C197.654 100.794 197.433 101.985 197.575 103.16C197.717 104.335 198.215 105.439 199.003 106.322C199.79 107.206 200.829 107.828 201.98 108.104C203.131 108.38 204.339 108.297 205.442 107.867C206.545 107.436 207.489 106.679 208.149 105.696C208.809 104.713 209.152 103.552 209.132 102.368C209.197 100.954 208.707 99.5712 207.765 98.5146C206.824 97.458 205.506 96.8118 204.094 96.714Z" fill="#86F2AA"/>
<path d="M312.014 102.8C312.312 104.128 311.64 104.18 310.046 105.098C306.41 107.186 306.346 107.366 305.918 107.078C305.49 106.79 305.052 106.498 304.62 106.212V108.352C304.62 108.533 304.548 108.706 304.421 108.834C304.293 108.962 304.119 109.034 303.938 109.034C303.757 109.034 303.584 108.962 303.456 108.834C303.328 108.706 303.256 108.533 303.256 108.352V104.952C303.257 104.833 303.289 104.715 303.349 104.612C303.408 104.508 303.494 104.422 303.597 104.362C303.7 104.301 303.817 104.269 303.936 104.267C304.056 104.265 304.174 104.295 304.278 104.352C304.95 104.796 305.608 105.24 306.278 105.684C307.732 104.842 309.178 104.012 310.634 103.17C310.503 102.531 310.185 101.945 309.722 101.486C309.426 101.178 309.107 100.892 308.768 100.632C308.616 100.532 308.51 100.375 308.473 100.197C308.435 100.019 308.47 99.8331 308.568 99.68C307.677 100.644 306.592 101.409 305.383 101.923C304.175 102.437 302.872 102.689 301.559 102.662C300.246 102.635 298.954 102.331 297.768 101.768C296.581 101.205 295.528 100.398 294.676 99.398C294.592 99.4621 294.51 99.5288 294.43 99.598C294.449 99.7231 294.43 99.8507 294.378 99.9657C294.325 100.081 294.241 100.178 294.134 100.246C293.22 100.826 292.555 101.727 292.27 102.772L296.628 105.286L298.628 103.954C298.733 103.894 298.851 103.862 298.972 103.862C299.093 103.863 299.211 103.895 299.316 103.956C299.42 104.017 299.506 104.104 299.565 104.209C299.625 104.314 299.656 104.433 299.654 104.554V107.954C299.645 108.129 299.569 108.293 299.442 108.414C299.315 108.534 299.146 108.601 298.971 108.601C298.796 108.601 298.628 108.534 298.501 108.414C298.374 108.293 298.298 108.129 298.288 107.954V105.814C297.046 106.632 296.81 106.966 296.288 106.68C291.3 103.83 291.1 103.838 290.918 103.402C290.323 104.274 289.783 105.182 289.302 106.122C290.85 107.87 292.751 109.27 294.88 110.23C297.008 111.189 299.316 111.686 301.651 111.688C303.986 111.69 306.295 111.197 308.425 110.242C310.556 109.286 312.459 107.889 314.01 106.144C313.513 104.937 312.84 103.811 312.014 102.8Z" fill="#BB6CE0"/>
<path d="M220.45 203.448L281.994 204.238C282.595 204.243 283.189 204.116 283.734 203.864C284.279 203.612 284.761 203.243 285.146 202.782L303.016 181.236C303.486 180.662 303.789 179.97 303.891 179.235C303.992 178.5 303.889 177.751 303.593 177.071C303.296 176.391 302.818 175.806 302.21 175.381C301.602 174.955 300.889 174.706 300.148 174.66L236.316 170.66L220.45 203.448ZM150.512 167.362C157.203 174.884 163.072 183.099 168.02 191.866C169.029 193.387 169.821 195.041 170.374 196.78C170.509 196.716 170.661 196.696 170.808 196.724C181.388 188.124 196.182 174.43 210.122 174.212C210.034 174.082 209.988 173.929 209.991 173.772C209.993 173.615 210.043 173.463 210.134 173.336C211.11 171.834 212.272 170.462 213.592 169.252L154.12 165.526C153.411 165.49 152.704 165.641 152.071 165.963C151.438 166.285 150.901 166.767 150.512 167.362Z" fill="#BB6CE0"/>
<path d="M228.028 102.988C228.098 101.573 227.609 100.187 226.666 99.1292C225.723 98.0715 224.402 97.4268 222.988 97.334C221.815 97.1791 220.622 97.3869 219.57 97.9296C218.518 98.4722 217.657 99.3237 217.103 100.37C216.549 101.416 216.329 102.606 216.471 103.781C216.613 104.957 217.112 106.06 217.899 106.944C218.687 107.827 219.726 108.449 220.877 108.724C222.028 109 223.236 108.917 224.339 108.487C225.441 108.056 226.386 107.299 227.045 106.316C227.705 105.333 228.048 104.172 228.028 102.988ZM109.828 139.128C101.928 130.6 80.7802 125.2 60.5142 132.428C61.2055 134.53 61.9531 136.612 62.7562 138.674C74.2722 131.322 96.7422 134.558 109.828 139.128Z" fill="#BB6CE0"/>
<path d="M216.2 176.98C202.308 171.82 183.85 188.35 173.2 197.128C174.304 197.506 175.315 198.116 176.164 198.916C177.014 199.716 177.683 200.689 178.126 201.768C178.236 201.976 178.261 202.218 178.197 202.443C178.132 202.669 177.982 202.861 177.779 202.978C177.576 203.096 177.335 203.131 177.107 203.075C176.879 203.019 176.682 202.877 176.556 202.678C176.224 202.24 176.108 202.158 176.134 201.746C176.048 201.563 175.946 201.389 175.828 201.224C175.364 200.546 174.771 199.967 174.081 199.521C173.392 199.075 172.62 198.77 171.812 198.624C174.012 200.704 174.594 204.182 174.758 207.192C174.826 208.362 173.006 208.35 172.938 207.192C173.068 204.376 172.079 201.623 170.186 199.534C170.036 199.644 169.856 199.705 169.67 199.709C169.484 199.713 169.302 199.66 169.147 199.557C168.992 199.454 168.872 199.306 168.804 199.134C168.735 198.961 168.722 198.771 168.764 198.59C168.764 198.59 168.798 198.286 168.798 198.068C168.724 197.962 168.677 197.839 168.661 197.71C168.645 197.582 168.661 197.451 168.706 197.33C168.356 196.172 167.839 195.072 167.17 194.064C153.914 170.23 134.17 149.184 107.55 140.314C95.8962 136.532 77.0382 133.65 65.6542 139.13C61.5392 141.073 58.2058 144.355 56.2002 148.44C71.4431 151.013 85.8391 157.229 98.1642 166.56C124.612 186.264 126.718 220.526 132.656 250.126C136.056 267.086 138.812 299.472 152.426 312.648C156.028 311.859 159.244 309.844 161.526 306.948C160.878 306.8 160.4 306.004 161.05 305.47C163.87 303.074 165.925 299.903 166.961 296.35C167.996 292.797 167.966 289.018 166.874 285.482C166.51 284.368 168.274 283.882 168.626 284.992C169.21 286.841 169.517 288.766 169.536 290.704C170.224 287.466 170.335 284.131 169.866 280.854C165.018 270.082 172.364 261.728 183.05 256.826C182.119 252.747 179.949 249.056 176.838 246.258C166.416 249.544 155.174 249.086 145.054 244.962C143.11 244.247 141.231 243.368 139.436 242.334C139.233 242.21 139.086 242.011 139.028 241.779C138.97 241.548 139.005 241.303 139.125 241.097C139.246 240.892 139.442 240.741 139.673 240.679C139.903 240.617 140.148 240.647 140.356 240.764C141.228 241.267 142.124 241.727 143.042 242.14C153.124 246.941 164.612 247.896 175.348 244.826C192.182 239.494 221.444 220.378 226.21 202.508C229.484 189.266 223.948 179.856 216.2 176.98Z" fill="#BB6CE0"/>
<path d="M310.978 89.172C310.975 89.0326 310.94 88.8958 310.876 88.772C310.018 87.1178 308.728 85.7269 307.143 84.7471C305.558 83.7672 303.738 83.2351 301.874 83.2072C300.011 83.1793 298.175 83.6567 296.562 84.5886C294.948 85.5206 293.617 86.8722 292.71 88.5C290.81 89.48 290.226 95.264 291.958 95.564C293.348 95.828 294.722 91.996 294.136 89.598C295.208 87.7557 296.866 86.3256 298.846 85.536C300.799 84.8666 302.927 84.917 304.846 85.6784C306.765 86.4397 308.349 87.8617 309.312 89.688C309.343 89.7358 309.377 89.7813 309.414 89.824C309.117 90.8613 309.081 91.9558 309.308 93.0104C309.536 94.0651 310.02 95.0474 310.718 95.87C312.848 97.458 313.126 90.954 310.978 89.172Z" fill="#AC47F5"/>
<path d="M274.27 40.3201C274.179 40.3705 274.079 40.3998 273.975 40.4059C273.871 40.412 273.768 40.3948 273.672 40.3554C273.576 40.316 273.49 40.2556 273.42 40.1785C273.351 40.1014 273.299 40.0096 273.27 39.9101C272.891 37.6672 271.735 35.6295 270.003 34.1549C268.271 32.6803 266.075 31.8632 263.8 31.8469C261.526 31.8307 259.318 32.6164 257.565 34.0662C255.813 35.5159 254.627 37.5368 254.216 39.7741C254.166 39.9477 254.05 40.0949 253.892 40.1841C253.735 40.2734 253.549 40.2978 253.374 40.2521C253.156 40.1848 252.925 40.1675 252.7 40.2013C252.474 40.2352 252.258 40.3193 252.069 40.4476C251.88 40.5758 251.723 40.7449 251.608 40.9423C251.493 41.1397 251.424 41.3604 251.406 41.5881C251.391 41.8295 251.434 42.0711 251.533 42.2918C251.632 42.5126 251.783 42.7059 251.974 42.8549C252.164 43.0039 252.389 43.1041 252.627 43.1468C252.865 43.1896 253.11 43.1735 253.34 43.1001C253.515 43.0548 253.701 43.0795 253.858 43.1687C254.015 43.2579 254.131 43.4047 254.182 43.5781C256.43 53.8921 271.118 53.2901 273.26 43.4541C273.284 43.3673 273.325 43.2862 273.38 43.2152C273.435 43.1442 273.504 43.0848 273.582 43.0404C273.66 42.996 273.746 42.9675 273.836 42.9565C273.925 42.9454 274.015 42.9521 274.102 42.9761C274.291 43.0765 274.497 43.1387 274.71 43.1593C274.923 43.1799 275.137 43.1583 275.341 43.0959C275.546 43.0335 275.736 42.9315 275.901 42.7956C276.065 42.6597 276.202 42.4927 276.302 42.3041C276.421 42.0216 276.452 41.71 276.391 41.4096C276.331 41.1093 276.181 40.8342 275.962 40.6201C275.743 40.406 275.464 40.2629 275.162 40.2094C274.861 40.1559 274.55 40.1944 274.27 40.3201Z" fill="#9B6868"/>
<path d="M245.676 102.988C245.746 101.573 245.256 100.187 244.314 99.1292C243.371 98.0715 242.05 97.4268 240.636 97.334C239.463 97.1791 238.27 97.3869 237.218 97.9296C236.166 98.4722 235.305 99.3237 234.751 100.37C234.197 101.416 233.977 102.606 234.119 103.781C234.261 104.957 234.76 106.06 235.547 106.944C236.335 107.827 237.374 108.449 238.525 108.724C239.676 109 240.884 108.917 241.987 108.487C243.089 108.056 244.034 107.299 244.693 106.316C245.353 105.333 245.696 104.172 245.676 102.988Z" fill="#F76559"/>
<path d="M64.2641 119.92C63.9241 121.13 63.8641 119.278 64.4221 129.32C66.1518 128.855 67.9016 128.468 69.6661 128.16C66.9021 126.182 64.9758 123.244 64.2641 119.92ZM116.182 59.0261C115.087 57.7091 113.921 56.4526 112.69 55.2621C109.186 61.2501 102.524 63.1041 101.928 69.3561C101.992 69.5561 103.276 73.7021 103.51 74.7941C115.422 79.1821 117.73 96.9061 108.094 104.268C105.434 106.259 102.216 107.365 98.8941 107.43C100.852 108.88 100.816 111.302 100.134 113.652C99.6804 115.495 98.8472 117.223 97.6876 118.725C96.5281 120.228 95.0678 121.472 93.4001 122.378C91.7062 123.234 89.7737 123.496 87.9129 123.123C86.052 122.749 84.3705 121.762 83.1381 120.318C83.4556 121.55 83.433 122.845 83.0727 124.065C82.7124 125.285 82.0279 126.384 81.0921 127.246C90.3424 127.222 99.416 129.779 107.292 134.63C106.984 131.592 106.692 128.566 106.382 125.528C106.564 127.384 121.944 118.328 123.182 117.076C127.411 112.632 130.174 106.998 131.098 100.934C133.61 85.8001 125.642 70.3741 116.182 59.0261ZM228.6 199.824C232.916 196.57 235.952 191.904 237.178 186.64C237.223 186.488 237.306 186.35 237.419 186.24C237.533 186.129 237.673 186.05 237.826 186.01C237.979 185.969 238.14 185.969 238.293 186.01C238.447 186.05 238.587 186.13 238.7 186.24C239.549 187.179 240.692 187.801 241.942 188.002C242.404 187.978 242.847 187.811 243.209 187.524C243.572 187.237 243.837 186.845 243.968 186.402C244.866 184.082 243.07 181.828 241.716 180.122C239.969 178.988 237.88 178.501 235.812 178.746C235.583 178.801 235.342 178.764 235.139 178.645C234.936 178.525 234.788 178.332 234.725 178.105C234.662 177.878 234.689 177.636 234.8 177.429C234.912 177.222 235.1 177.066 235.324 176.994C237.952 176.586 240.637 177.196 242.83 178.7C244.354 179.3 246.552 179.974 247.3 178.006C247.481 177.13 247.426 176.222 247.14 175.375C246.855 174.527 246.349 173.771 245.674 173.184C244.958 172.344 244.179 171.56 243.342 170.84C241.951 170.24 240.452 169.929 238.936 169.925C237.421 169.921 235.921 170.225 234.526 170.818C234.318 170.931 234.074 170.961 233.844 170.902C233.614 170.842 233.416 170.698 233.288 170.498C233.165 170.29 233.129 170.042 233.188 169.808C233.247 169.574 233.397 169.372 233.604 169.248C235.487 168.421 237.537 168.047 239.59 168.156C235.051 165.39 229.62 164.48 224.426 165.616C219.233 166.751 214.677 169.844 211.706 174.252C222.644 174.934 230.844 185.186 228.6 199.824Z" fill="#FFCEB6"/>
<path d="M227.674 325.57C223.614 325.57 222.328 330.7 221.634 333.828C221.054 336.495 220.576 339.179 220.2 341.882C225.602 338.915 230.73 335.474 235.524 331.6C233.784 328.942 230.856 325.57 227.674 325.57ZM143.978 341.16C143.329 340.111 142.431 339.24 141.362 338.624C140.777 338.35 140.137 338.212 139.491 338.22C138.845 338.228 138.209 338.382 137.63 338.67C135.308 339.967 133.438 341.943 132.272 344.334C129.4 350.132 127.754 356.46 127.438 362.922C135.227 363.504 143.048 363.51 150.838 362.94C150.459 360.398 149.95 357.876 149.312 355.386C148.078 350.516 146.91 345.338 143.978 341.16Z" fill="#EAC5FB"/>
<path d="M249.05 302.864C246.434 298.89 241.69 298.532 236.98 299.338C217.538 302.65 200.396 315.184 180.534 318.62C171.922 320.11 162.322 320.282 155.268 315.118C139.104 303.344 136.424 268.946 132.654 250.15C126.726 220.55 124.61 186.286 98.1621 166.584C80.9381 153.76 58.0401 145.146 36.4501 148.314C27.8941 149.578 19.3641 152.914 13.4601 159.236C-6.53989 180.636 0.58211 225.836 6.75811 251.538C13.5721 279.874 26.4381 308.064 47.1321 328.994C49.3901 324.726 53.2041 323.516 55.8561 324.456C58.4281 325.366 59.4401 327.97 60.3621 330.302C62.0429 334.587 63.4458 338.976 64.5621 343.442C71.6962 348.2 79.4146 352.018 87.5261 354.8C99.8647 358.994 112.667 361.674 125.652 362.78C127.408 340.722 138.524 329.87 145.73 340.518C148.768 345.024 149.962 350.552 151.304 355.738C151.883 358.067 152.33 360.428 152.64 362.808C166.026 361.68 179.209 358.827 191.864 354.322C200.926 351.19 209.743 347.391 218.244 342.958C218.472 341.14 218.734 339.33 219.044 337.532C219.782 333.438 220.644 327.712 223.878 325.132C224.711 324.47 225.701 324.033 226.752 323.863C227.802 323.694 228.879 323.798 229.878 324.166C232.814 325.477 235.27 327.667 236.908 330.434C241.174 326.566 247.852 318.592 249.808 311.434C249.82 308.56 249.566 305.691 249.05 302.864Z" fill="#EAC5FB"/>
<path d="M54.1281 325.968C52.8708 326.081 51.6725 326.553 50.676 327.327C49.6796 328.102 48.927 329.147 48.5081 330.338C52.7662 334.553 57.3703 338.404 62.2721 341.85C61.2571 338.092 60.0346 334.393 58.6101 330.77C57.8001 328.698 56.8001 326 54.1281 325.968Z" fill="#EAC5FB"/>
<path d="M309.414 89.8141C309.008 89.1062 308.523 88.4461 307.97 87.8461C306.854 86.5943 305.388 85.7047 303.763 85.2914C302.137 84.878 300.425 84.9597 298.846 85.5261C296.853 86.2935 295.188 87.7293 294.136 89.588C294.355 90.5917 294.336 91.6324 294.081 92.6275C293.827 93.6226 293.344 94.5446 292.67 95.3201C293.103 97.3542 294.206 99.184 295.804 100.516C297.401 101.847 299.4 102.604 301.479 102.664C303.557 102.723 305.596 102.083 307.267 100.845C308.938 99.6074 310.145 97.844 310.694 95.838C310.005 95.015 309.528 94.0356 309.304 92.9854C309.081 91.9352 309.119 90.8463 309.414 89.8141Z" fill="#FFCEB6"/>
<path d="M178.754 52.788C177.935 53.0766 177.036 53.0437 176.24 52.696C171.76 59.534 172.016 58.706 172.462 59.51C173.968 62.1524 175.562 64.7438 177.24 67.28C178.744 64.126 181.79 59.35 181.79 58.942C181.782 58.74 182 59.382 178.754 52.788ZM177.576 51.15C177.93 51.1506 178.28 51.071 178.599 50.9172C178.918 50.7634 179.198 50.5394 179.418 50.262C178.299 50.3967 177.166 50.3772 176.052 50.204C176.217 50.4673 176.441 50.6893 176.705 50.8533C176.969 51.0172 177.267 51.1187 177.576 51.15Z" fill="#F76559"/>
<path d="M167.646 40.576C167.878 40.5151 168.125 40.5476 168.333 40.6665C168.541 40.7854 168.695 40.9813 168.76 41.212C170.938 51.18 185.292 50.812 187.404 41.092C187.47 40.8608 187.623 40.6646 187.832 40.5456C188.041 40.4267 188.288 40.3945 188.52 40.456C188.848 40.6366 189.233 40.6805 189.593 40.5783C189.953 40.476 190.258 40.2359 190.442 39.91C190.543 39.6714 190.57 39.4081 190.521 39.1539C190.471 38.8996 190.347 38.666 190.163 38.4828C189.98 38.2996 189.746 38.1752 189.492 38.1256C189.238 38.0759 188.975 38.1032 188.736 38.204C188.615 38.2723 188.481 38.3123 188.343 38.321C188.204 38.3297 188.066 38.3069 187.938 38.2544C187.809 38.2018 187.695 38.1208 187.602 38.0175C187.51 37.9142 187.442 37.7913 187.404 37.658C184.73 26.958 171.148 27.338 168.816 37.442C168.816 37.464 168.816 37.486 168.794 37.52C168.729 37.7512 168.576 37.9475 168.368 38.0668C168.159 38.1862 167.912 38.2189 167.68 38.158C167.492 38.0991 167.293 38.0837 167.098 38.1131C166.903 38.1425 166.718 38.2158 166.555 38.3276C166.393 38.4394 166.258 38.5867 166.161 38.7583C166.065 38.9299 166.008 39.1213 165.996 39.318C165.986 39.5219 166.026 39.7251 166.112 39.9102C166.199 40.0953 166.328 40.2566 166.491 40.3804C166.653 40.5041 166.843 40.5866 167.044 40.6207C167.246 40.6548 167.452 40.6395 167.646 40.576Z" fill="#FFCEB6"/>
<path d="M121.062 78.842C122.388 78.842 123.462 77.7675 123.462 76.442C123.462 75.1165 122.388 74.042 121.062 74.042C119.737 74.042 118.662 75.1165 118.662 76.442C118.662 77.7675 119.737 78.842 121.062 78.842Z" fill="#1D1D1B"/>
<path d="M114.532 64.6461C114.696 64.4723 114.788 64.2422 114.788 64.0031C114.788 63.7639 114.696 63.5338 114.532 63.3601C114.361 63.1911 114.13 63.0964 113.889 63.0964C113.648 63.0964 113.417 63.1911 113.246 63.3601C111.397 65.4711 110.35 68.1662 110.29 70.9721C110.225 71.441 110.283 71.9188 110.46 72.3581C110.526 72.4703 110.614 72.5682 110.718 72.6459C110.823 72.7237 110.942 72.7796 111.068 72.8106C111.195 72.8415 111.326 72.8468 111.455 72.826C111.583 72.8053 111.707 72.7589 111.817 72.6898C111.927 72.6206 112.023 72.53 112.097 72.4234C112.172 72.3167 112.225 72.1962 112.252 72.0688C112.279 71.9415 112.281 71.81 112.256 71.6821C112.232 71.5541 112.182 71.4324 112.11 71.3241C112.068 68.8759 112.931 66.4983 114.532 64.6461ZM112.132 71.6461C112.132 71.7701 112.12 71.7481 112.12 71.6221L112.132 71.6461ZM120.778 95.1561C121.904 96.2819 123.358 97.0234 124.93 97.2748C126.503 97.5262 128.115 97.2747 129.536 96.5561C129.644 96.4989 129.739 96.4205 129.816 96.3256C129.893 96.2308 129.95 96.1213 129.984 96.0039C130.018 95.8865 130.027 95.7634 130.012 95.6422C129.997 95.5209 129.958 95.4039 129.897 95.2982C129.835 95.1925 129.754 95.1003 129.656 95.027C129.558 94.9537 129.446 94.901 129.328 94.8718C129.209 94.8427 129.086 94.8377 128.965 94.8574C128.845 94.877 128.729 94.9208 128.626 94.9861C127.554 95.5107 126.344 95.6843 125.168 95.4822C123.992 95.2801 122.909 94.7125 122.074 93.8601C121.902 93.6882 121.669 93.5916 121.426 93.5916C121.183 93.5916 120.95 93.6882 120.778 93.8601C120.606 94.0319 120.51 94.265 120.51 94.5081C120.51 94.7511 120.606 94.9842 120.778 95.1561Z" fill="#1D1D1B"/>
<path d="M346.6 235.578C345.27 235.522 210.322 229.196 207.386 229.058C210.688 226.503 213.809 223.721 216.724 220.732C217.674 220.772 344.238 226.692 346.134 226.732C346.376 226.732 346.607 226.636 346.778 226.465C346.948 226.295 347.044 226.063 347.044 225.822C347.044 225.581 346.948 225.349 346.778 225.179C346.607 225.008 346.376 224.912 346.134 224.912C344.964 224.856 219.228 219.02 218.386 218.974C223.208 213.64 226.598 208.892 228.136 202.23C229.182 202.23 236.052 196.982 238.556 188.464C239.478 189.243 240.618 189.72 241.82 189.83C242.521 189.788 243.203 189.583 243.812 189.232C244.42 188.881 244.939 188.393 245.327 187.808C245.715 187.222 245.961 186.554 246.047 185.857C246.132 185.16 246.055 184.452 245.82 183.79C248.767 184.177 251.721 184.517 254.682 184.812C251.498 187.879 248.287 190.924 245.048 193.948C242.406 193.788 239.756 193.584 237.118 193.348C235.958 193.246 235.958 195.066 237.118 195.168C239.154 195.35 241.202 195.498 243.25 195.636C242.352 196.466 241.462 197.318 240.564 198.15C239.7 198.95 240.984 200.23 241.85 199.434C243.158 198.234 244.432 197.012 245.718 195.806C250.426 196.09 255.138 196.226 259.846 196.26C259.232 196.92 258.596 197.568 257.992 198.228C257.192 199.094 258.48 200.378 259.278 199.514C260.278 198.422 261.302 197.352 262.326 196.284C264.966 196.284 267.61 196.246 270.256 196.17C270.498 196.17 270.729 196.074 270.9 195.904C271.07 195.733 271.166 195.501 271.166 195.26C271.166 195.019 271.07 194.787 270.9 194.617C270.729 194.446 270.498 194.35 270.256 194.35C268.196 194.406 266.138 194.43 264.068 194.44C266.827 191.573 269.64 188.759 272.506 186C274.056 186.056 281.268 186.17 281.268 186.17C281.298 186.365 281.403 186.54 281.56 186.659C281.717 186.778 281.915 186.832 282.11 186.808C282.33 186.804 282.544 186.733 282.723 186.605C282.902 186.477 283.039 186.299 283.115 186.092C283.191 185.886 283.203 185.661 283.149 185.448C283.095 185.234 282.979 185.042 282.814 184.896C282.03 184.044 280.596 184.34 279.56 184.328C277.832 184.304 276.102 184.248 274.374 184.202C276.753 181.935 279.164 179.71 281.608 177.526C282.484 176.74 281.208 175.466 280.324 176.24C277.435 178.823 274.598 181.458 271.814 184.146C271.576 184.134 267.92 184.094 258.788 183.346C260.268 181.902 261.77 180.468 263.236 179.012C263.396 178.839 263.483 178.612 263.479 178.376C263.474 178.141 263.379 177.916 263.212 177.75C263.046 177.584 262.821 177.488 262.586 177.484C262.351 177.479 262.123 177.566 261.95 177.726C260.12 179.546 258.242 181.326 256.388 183.142C256.188 183.12 252.064 182.834 245.048 181.878C244.905 181.612 244.752 181.35 244.59 181.094C245.288 181.215 246.004 181.152 246.67 180.912C247.336 180.671 247.927 180.262 248.387 179.723C248.846 179.185 249.157 178.536 249.29 177.841C249.422 177.145 249.371 176.428 249.142 175.758C248.26 171.888 241.342 165.204 232.542 163.724V161.286C239.106 161.59 339.064 166.286 339.166 166.286C339.408 166.286 339.639 166.19 339.81 166.02C339.98 165.849 340.076 165.617 340.076 165.376C340.076 165.135 339.98 164.903 339.81 164.733C339.639 164.562 339.408 164.466 339.166 164.466C337.402 164.386 238.414 159.75 232.542 159.476C232.542 152.412 232.542 139.712 232.53 136.606C241.482 136.948 330.53 138.938 331.714 138.916C331.953 138.909 332.181 138.811 332.35 138.642C332.519 138.473 332.617 138.245 332.624 138.006C334.574 114.206 340.718 31.944 339.142 7.91403C339.138 7.67396 339.041 7.44488 338.871 7.27511C338.701 7.10533 338.472 7.00814 338.232 7.00403C336.502 6.93603 115.144 0.00402578 114.302 0.0420258C114.062 0.0471285 113.834 0.144642 113.664 0.314206C113.495 0.483771 113.397 0.712279 113.392 0.952026C113.392 2.82003 113.322 20.488 113.25 40.386C110.038 35.474 102.392 33.544 98.0502 37.524C97.7101 35.4768 96.7512 33.5828 95.3026 32.0968C93.8539 30.6108 91.9849 29.6041 89.947 29.212C87.9091 28.82 85.8 29.0613 83.9034 29.9037C82.0068 30.7461 80.4136 32.1491 79.3382 33.924C77.0629 32.5729 74.4442 31.9115 71.8002 32.02C71.079 32.0675 70.3844 32.3109 69.7912 32.7239C69.1981 33.137 68.7289 33.704 68.4342 34.364C52.6342 35.586 38.0962 50.61 39.8342 76.978C40.9182 93.578 47.2922 96.726 50.0342 106.008C50.8548 108.859 51.0976 111.845 50.7483 114.79C50.399 117.736 49.4647 120.582 48.0002 123.162C47.2242 124.516 46.2602 126.074 46.8162 127.53C48.4162 131.684 61.4002 129.778 64.2782 119.92C64.9878 123.246 66.9135 126.187 69.6782 128.168C66.0933 128.806 62.5687 129.746 59.1422 130.978C58.9134 131.047 58.7198 131.2 58.6014 131.408C58.483 131.615 58.4489 131.86 58.5062 132.092C59.3024 134.656 60.2405 137.174 61.3162 139.634C58.2769 141.822 55.8635 144.768 54.3162 148.178C54.6362 148.224 55.9162 148.394 56.2402 148.44C62.4662 135.826 77.8642 135.068 91.8122 136.814C125.396 140.994 150.702 164.374 167.212 194.068C167.612 194.802 169.17 197.51 168.812 198.594C168.77 198.775 168.783 198.965 168.852 199.138C168.92 199.31 169.04 199.458 169.195 199.561C169.349 199.664 169.532 199.717 169.718 199.713C169.904 199.709 170.084 199.648 170.234 199.538C172.134 201.625 173.129 204.381 173 207.2C173.068 208.362 174.888 208.372 174.82 207.2C174.642 204.26 174.114 200.724 171.872 198.634C175.792 199.378 176.138 203.766 177.756 203.06C177.959 202.977 178.125 202.822 178.221 202.625C178.317 202.427 178.338 202.201 178.278 201.99C177.847 200.864 177.175 199.845 176.308 199.006C175.442 198.168 174.402 197.529 173.262 197.134C184.062 188.2 202.314 171.832 216.262 176.986C227.49 181.186 232.062 198.572 220.576 213.674C211.956 224.976 196.376 235.63 183.888 241.488C178.077 244.554 171.669 246.32 165.108 246.664C156.497 246.968 147.962 244.948 140.4 240.816C140.193 240.708 139.952 240.683 139.727 240.747C139.502 240.812 139.31 240.96 139.191 241.162C139.073 241.363 139.036 241.603 139.089 241.831C139.142 242.059 139.281 242.257 139.476 242.386C145.617 245.707 152.373 247.732 159.328 248.336C165.257 248.929 171.244 248.238 176.882 246.31C187.013 242.512 196.548 237.283 205.196 230.782C207.742 230.896 346.584 237.402 346.662 237.404C347.78 237.42 347.78 235.624 346.6 235.578ZM257.082 185.012C261.338 185.402 264.796 185.658 270.014 185.888C267.144 188.69 264.326 191.546 261.562 194.454C256.91 194.442 252.246 194.294 247.592 194.054C250.78 191.075 253.944 188.061 257.082 185.012ZM86.7522 134.504C78.2102 133.892 69.7522 134.448 62.7522 138.674C61.9522 136.614 61.2162 134.532 60.5102 132.428C64.4009 131.06 68.4221 130.095 72.5102 129.55C89.8842 127.208 104.388 133.234 109.834 139.128C102.375 136.586 94.615 135.032 86.7522 134.504ZM210.134 173.336C210.043 173.463 209.993 173.616 209.991 173.772C209.989 173.929 210.035 174.082 210.122 174.212C196.91 174.412 182.632 186.93 172.446 195.382C170.14 197.302 171.192 196.512 170.374 196.782C169.815 195.045 169.023 193.392 168.02 191.868C155.24 169.436 136.754 149.768 112.962 140.308C112.938 140.196 112.896 140.089 112.838 139.99C106.876 131.208 91.8382 127.412 81.1222 127.248C82.0578 126.386 82.7423 125.287 83.1029 124.067C83.4636 122.847 83.4868 121.552 83.1702 120.32C84.402 121.764 86.0832 122.752 87.9438 123.125C89.8044 123.499 91.7366 123.236 93.4302 122.38C95.0961 121.473 96.5544 120.229 97.7119 118.726C98.8694 117.224 99.7006 115.496 100.152 113.654C100.844 111.254 100.868 108.936 98.9142 107.432C112.698 107.052 117.914 91.68 111.336 81.256C109.549 78.2763 106.797 75.9969 103.536 74.796C102.632 71.628 102.918 72.47 101.956 69.358C102.556 63.11 109.12 61.38 112.716 55.264C113.532 56.102 114.05 56.596 115.042 57.704L115.254 1.86603C135.136 1.38203 330.724 9.06602 337.374 8.86602C338.712 30.616 333.914 97.538 332.254 119.426C330.674 119.378 171.544 114.31 126.546 112.896C126.146 113.504 125.725 114.097 125.282 114.676C168.33 116.052 329.708 121.204 332.13 121.224C330.7 139.346 330.848 136.724 330.844 137.104C303.866 137.566 136.922 130.188 114.776 129.704C114.776 127.97 114.792 125.076 114.802 122.256C114.35 122.506 113.898 122.75 113.452 122.986C113.136 125.422 112.967 127.874 112.944 130.33C112.992 130.53 112.836 131.4 113.854 131.468C115.39 131.548 191.618 134.982 200.138 135.336L202.262 158.008C194.384 157.644 142.312 155.222 142.214 155.22C141.99 155.24 141.781 155.342 141.628 155.508C141.476 155.673 141.39 155.889 141.389 156.115C141.387 156.34 141.47 156.557 141.62 156.725C141.771 156.892 141.978 156.997 142.202 157.02C143.912 157.092 193.518 159.42 202.434 159.83L202.892 164.71C202.895 164.909 202.961 165.101 203.082 165.259C203.203 165.417 203.371 165.532 203.562 165.586C207.772 166.253 212.002 166.775 216.254 167.154C213.823 168.787 211.742 170.889 210.134 173.336ZM201.978 135.4C211.566 135.787 221.16 136.166 230.758 136.538C230.796 142.662 230.758 158.738 230.758 163.494C226.733 163.122 222.683 163.839 219.03 165.57C214.217 165.22 209.42 164.669 204.652 163.918C204.526 162.6 202.682 142.968 201.978 135.4ZM211.738 174.248C214.709 169.841 219.265 166.748 224.457 165.612C229.65 164.476 235.08 165.385 239.62 168.15C237.568 168.042 235.518 168.416 233.636 169.242C233.433 169.366 233.286 169.566 233.228 169.797C233.17 170.028 233.205 170.273 233.325 170.479C233.446 170.684 233.642 170.835 233.873 170.897C234.103 170.959 234.348 170.929 234.556 170.812C235.951 170.219 237.451 169.915 238.966 169.919C240.482 169.923 241.981 170.234 243.372 170.834C245.388 172.634 248.29 175.486 247.332 178.002C246.582 179.97 244.386 179.298 242.862 178.696C240.668 177.192 237.983 176.582 235.354 176.988C235.13 177.06 234.942 177.216 234.831 177.423C234.719 177.63 234.692 177.872 234.755 178.099C234.818 178.326 234.966 178.519 235.169 178.639C235.372 178.758 235.613 178.795 235.842 178.74C237.885 178.517 239.945 178.973 241.702 180.038C243.102 181.438 244.828 184.252 244 186.396C243.871 186.84 243.606 187.233 243.243 187.52C242.88 187.806 242.436 187.973 241.974 187.996C240.722 187.801 239.576 187.177 238.732 186.232C238.618 186.123 238.477 186.046 238.324 186.006C238.171 185.967 238.011 185.967 237.858 186.007C237.705 186.047 237.565 186.126 237.451 186.235C237.337 186.344 237.253 186.481 237.206 186.632C235.973 191.892 232.939 196.556 228.63 199.816C230.62 186.8 223.96 175 211.738 174.24V174.248Z" fill="#1D1D1B"/>
<path d="M203.922 110.046C205.828 109.85 207.596 108.961 208.89 107.548C210.184 106.135 210.914 104.296 210.942 102.38C211.004 100.724 210.494 99.0972 209.497 97.7732C208.501 96.4491 207.079 95.5087 205.47 95.1101C204.033 94.7052 202.51 94.7279 201.086 95.1756C199.662 95.6233 198.399 96.4764 197.453 97.6305C196.506 98.7847 195.917 100.19 195.756 101.674C195.596 103.158 195.872 104.656 196.55 105.986C197.269 107.291 198.343 108.366 199.648 109.084C200.953 109.803 202.435 110.136 203.922 110.046ZM204.094 96.7141C205.508 96.8073 206.828 97.4523 207.77 98.5099C208.713 99.5676 209.202 100.953 209.132 102.368C209.152 103.552 208.809 104.713 208.149 105.696C207.489 106.679 206.545 107.436 205.442 107.867C204.339 108.297 203.131 108.38 201.98 108.104C200.829 107.828 199.79 107.206 199.003 106.322C198.215 105.439 197.717 104.335 197.575 103.16C197.433 101.985 197.654 100.794 198.208 99.7482C198.762 98.7022 199.623 97.8509 200.675 97.3085C201.728 96.7661 202.921 96.5587 204.094 96.7141ZM222.818 110.66C224.724 110.464 226.492 109.575 227.785 108.162C229.079 106.749 229.809 104.91 229.836 102.994C229.9 101.338 229.391 99.7096 228.394 98.3851C227.397 97.0606 225.974 96.1207 224.364 95.7241C222.928 95.3206 221.405 95.3445 219.982 95.7927C218.559 96.2409 217.297 97.094 216.351 98.2477C215.405 99.4015 214.816 100.806 214.655 102.289C214.494 103.772 214.769 105.27 215.446 106.6C216.164 107.905 217.239 108.98 218.544 109.699C219.849 110.417 221.331 110.751 222.818 110.66ZM222.988 97.3341C224.402 97.4268 225.723 98.0716 226.666 99.1292C227.608 100.187 228.098 101.573 228.028 102.988C228.048 104.172 227.705 105.333 227.045 106.316C226.386 107.299 225.441 108.056 224.339 108.487C223.236 108.917 222.028 109 220.877 108.724C219.726 108.449 218.687 107.827 217.899 106.944C217.112 106.06 216.613 104.957 216.471 103.781C216.329 102.606 216.549 101.416 217.103 100.37C217.657 99.3238 218.518 98.4722 219.57 97.9296C220.622 97.3869 221.815 97.1791 222.988 97.3341ZM240.472 110.66C242.378 110.465 244.147 109.576 245.441 108.163C246.735 106.749 247.465 104.91 247.492 102.994C247.554 101.338 247.044 99.7112 246.047 98.3872C245.051 97.0631 243.629 96.1227 242.02 95.7241C240.583 95.3187 239.06 95.3412 237.636 95.7888C236.212 96.2364 234.949 97.0896 234.002 98.2439C233.056 99.3983 232.466 100.804 232.307 102.288C232.147 103.772 232.423 105.271 233.102 106.6C233.82 107.906 234.893 108.98 236.198 109.699C237.503 110.418 238.985 110.751 240.472 110.66ZM240.636 97.3341C242.05 97.4268 243.371 98.0716 244.314 99.1292C245.256 100.187 245.746 101.573 245.676 102.988C245.696 104.172 245.353 105.333 244.693 106.316C244.034 107.299 243.089 108.056 241.987 108.487C240.884 108.917 239.676 109 238.525 108.724C237.374 108.449 236.335 107.827 235.547 106.944C234.76 106.06 234.261 104.957 234.119 103.781C233.977 102.606 234.197 101.416 234.751 100.37C235.305 99.3238 236.166 98.4722 237.218 97.9296C238.27 97.3869 239.463 97.1791 240.636 97.3341ZM191.124 176.878C191.386 177.044 191.524 177.02 192.444 176.946C192.685 176.946 192.917 176.85 193.088 176.68C193.258 176.509 193.354 176.277 193.354 176.036C193.354 175.795 193.258 175.563 193.088 175.393C192.917 175.222 192.685 175.126 192.444 175.126C189.26 174.968 186.074 174.796 182.888 174.638C183.514 174.024 184.118 173.386 184.754 172.784C184.914 172.611 185.001 172.384 184.996 172.148C184.992 171.913 184.897 171.689 184.73 171.522C184.564 171.356 184.339 171.26 184.104 171.256C183.869 171.251 183.641 171.338 183.468 171.498C183.184 171.782 182.888 172.066 182.604 172.352L182.592 172.374C181.864 173.08 181.16 173.808 180.442 174.524C174.355 174.216 168.273 173.905 162.196 173.592C161.024 173.534 161.024 175.354 162.196 175.412C167.701 175.696 173.207 175.977 178.714 176.254C176.581 178.414 174.48 180.605 172.412 182.828C170.864 182.737 169.321 182.643 167.782 182.544C166.61 182.476 166.622 184.296 167.782 184.364C168.782 184.42 169.782 184.49 170.796 184.546C170.728 184.626 170.648 184.694 170.58 184.774C169.796 185.638 171.07 186.924 171.866 186.058C172.286 185.592 172.73 185.148 173.162 184.682L181.114 185.16C182.286 185.228 182.274 183.408 181.114 183.34L174.8 182.964C176.9 180.732 179.034 178.532 181.2 176.364C184.47 176.538 187.8 176.708 191.124 176.878ZM285.452 310.872C284.79 271.872 267.652 245.542 228.994 247.374C217.594 247.898 200.094 250.542 188.668 254.608C181.998 256.982 175.012 260.314 171.002 266.11C169.195 268.79 168.291 271.977 168.424 275.206C168.557 278.436 169.719 281.538 171.74 284.06C172.468 284.97 173.71 283.718 173.026 282.774C167.548 275.212 169.05 265.402 183.89 258.5C194.09 253.732 208.394 251.314 219.62 250.036C230.496 248.808 241.552 248.454 252.008 252.236C274.134 260.204 282.234 282.936 283.438 306.636C283.889 315.722 283.424 324.831 282.05 333.824C281.85 334.972 283.598 335.462 283.802 334.312C285.024 326.561 285.577 318.718 285.452 310.872Z" fill="#1D1D1B"/>
<path d="M249.704 298.502C249.889 297.163 250.347 295.877 251.052 294.723C251.757 293.57 252.693 292.575 253.8 291.8C253.903 291.74 253.994 291.661 254.066 291.567C254.138 291.472 254.192 291.364 254.222 291.249C254.253 291.134 254.261 291.014 254.245 290.896C254.23 290.778 254.191 290.664 254.131 290.561C254.072 290.458 253.992 290.368 253.898 290.295C253.803 290.223 253.695 290.17 253.58 290.139C253.465 290.108 253.345 290.1 253.227 290.116C253.109 290.132 252.995 290.17 252.892 290.23C250.375 291.952 248.638 294.596 248.056 297.59L248.022 297.612C247.931 296.625 247.981 295.629 248.17 294.656C248.51 292.658 249.274 290.757 250.412 289.08C251.072 288.104 249.49 287.192 248.842 288.16C247.399 290.309 246.512 292.783 246.26 295.36C246.06 297.224 246.06 300.442 248.534 300.704C251.308 310.062 247.852 321.474 253.404 344.046C253.476 344.27 253.632 344.458 253.839 344.57C254.046 344.681 254.288 344.709 254.515 344.645C254.742 344.582 254.935 344.434 255.055 344.231C255.174 344.028 255.211 343.787 255.156 343.558C249.338 319.92 253.628 308.95 249.704 298.502ZM166.872 285.506C167.968 289.041 168.001 292.821 166.965 296.375C165.93 299.928 163.872 303.099 161.048 305.492C160.148 306.248 161.448 307.504 162.334 306.778C165.381 304.152 167.598 300.696 168.717 296.833C169.836 292.969 169.808 288.864 168.636 285.016C168.272 283.912 166.51 284.4 166.872 285.506ZM236.922 330.4C235.286 327.632 232.829 325.442 229.892 324.132C228.893 323.765 227.816 323.661 226.765 323.83C225.715 324 224.725 324.437 223.892 325.1C222.394 326.445 221.302 328.182 220.74 330.116C218.958 335.296 216.512 350.612 217.714 365.506C217.722 365.722 217.806 365.927 217.951 366.087C218.096 366.246 218.293 366.35 218.507 366.378C218.721 366.407 218.938 366.359 219.119 366.243C219.301 366.126 219.436 365.95 219.5 365.744C219.802 364.978 220.128 364.372 219.446 363.982C218.753 353.869 219.494 343.708 221.646 333.802C222.33 330.674 223.616 325.544 227.688 325.544C230.856 325.544 233.792 328.91 235.536 331.572C238.636 336.645 240.304 342.463 240.36 348.408C240.406 349.58 242.226 349.58 242.18 348.408C242.118 342.036 240.299 335.804 236.922 330.4ZM151.304 355.732C149.964 350.556 148.778 345.018 145.73 340.512C141.658 334.482 136.566 335.454 132.398 340.842C125.16 350.172 125.042 367.482 125.624 379.082C125.68 380.242 127.5 380.254 127.444 379.082C126.888 368.126 126.796 354.02 132.272 344.334C133.438 341.943 135.308 339.967 137.63 338.67C140.36 337.424 142.294 338.758 143.978 341.16C146.914 345.336 148.09 350.516 149.342 355.374C151.532 363.828 151.294 369.106 152.778 376.574C153.004 377.722 154.756 377.232 154.53 376.084C153.178 369.304 153.07 362.552 151.304 355.732ZM60.3622 330.302C59.4382 327.97 58.4282 325.366 55.8562 324.456C54.6552 324.12 53.3852 324.12 52.184 324.455C50.9827 324.79 49.8962 325.447 49.0422 326.356C47.2353 328.462 45.9493 330.963 45.2882 333.658C42.2122 343.258 41.7462 353.84 41.3302 363.792C41.2842 364.964 43.1042 364.964 43.1502 363.792C43.5502 354.192 44.5602 325.872 54.1162 326.002C56.7662 326.036 57.7682 328.722 58.5982 330.814C63.1518 342.397 65.6564 354.684 66.0002 367.126C66.0002 367.367 66.0961 367.599 66.2667 367.769C66.4374 367.94 66.6689 368.036 66.9102 368.036C67.1516 368.036 67.383 367.94 67.5537 367.769C67.7243 367.599 67.8202 367.367 67.8202 367.126C67.4738 354.513 64.9507 342.055 60.3622 330.302ZM305.444 83.916C307.685 84.8461 309.557 86.4897 310.768 88.592C311.137 88.1563 311.385 87.6315 311.488 87.0701C311.591 86.5087 311.544 85.9301 311.354 85.392C311.07 84.7187 310.547 84.1741 309.886 83.8633C309.225 83.5524 308.472 83.4971 307.772 83.708C307.799 83.164 307.66 82.6247 307.372 82.162C306.85 81.48 305.654 81.178 304.062 82.434C304.144 82.1291 304.154 81.8095 304.093 81.4999C304.031 81.1903 303.9 80.8989 303.708 80.648C302.734 79.762 300.252 80.848 299.194 81.9C299.229 81.8129 299.244 81.7195 299.239 81.626C299.234 81.5325 299.209 81.4411 299.166 81.358C299.123 81.275 299.062 81.2022 298.988 81.1446C298.915 81.0869 298.829 81.0458 298.738 81.024C297.324 80.624 293 83.872 292.966 88.076C294.248 86.051 296.19 84.5309 298.464 83.7729C300.738 83.0149 303.203 83.0654 305.444 83.916ZM295.974 91.948C295.974 92.1213 296.026 92.2906 296.122 92.4347C296.218 92.5787 296.355 92.691 296.515 92.7573C296.675 92.8236 296.851 92.841 297.021 92.8072C297.191 92.7734 297.347 92.69 297.47 92.5674C297.592 92.4449 297.676 92.2888 297.709 92.1189C297.743 91.949 297.726 91.7729 297.66 91.6128C297.593 91.4527 297.481 91.3159 297.337 91.2197C297.193 91.1234 297.023 91.072 296.85 91.072C296.618 91.072 296.395 91.1643 296.231 91.3286C296.066 91.4929 295.974 91.7157 295.974 91.948ZM306.554 92.472C306.554 92.2397 306.462 92.0169 306.298 91.8526C306.133 91.6883 305.911 91.596 305.678 91.596C305.505 91.596 305.336 91.6474 305.192 91.7436C305.047 91.8399 304.935 91.9767 304.869 92.1368C304.803 92.2969 304.785 92.473 304.819 92.6429C304.853 92.8128 304.936 92.9689 305.059 93.0914C305.181 93.2139 305.337 93.2974 305.507 93.3312C305.677 93.365 305.853 93.3476 306.013 93.2813C306.174 93.215 306.31 93.1028 306.407 92.9587C306.503 92.8146 306.554 92.6453 306.554 92.472ZM303.152 95.224C302.948 95.1105 302.709 95.0792 302.483 95.1365C302.257 95.1937 302.061 95.3352 301.936 95.532C301.945 95.5213 301.952 95.51 301.958 95.498C301.858 95.623 301.716 95.7075 301.558 95.736L301.512 95.748C301.235 95.7683 300.957 95.7603 300.682 95.724C300.416 95.6933 300.156 95.626 299.908 95.524C299.874 95.512 299.852 95.49 299.816 95.478C299.713 95.4184 299.599 95.3797 299.481 95.364C299.363 95.3484 299.243 95.3562 299.128 95.3869C299.013 95.4176 298.905 95.4707 298.811 95.5432C298.716 95.6156 298.637 95.7059 298.577 95.809C298.518 95.9121 298.479 96.0259 298.463 96.144C298.448 96.262 298.455 96.382 298.486 96.4971C298.517 96.6121 298.57 96.72 298.642 96.8145C298.715 96.9091 298.805 96.9884 298.908 97.048C299.264 97.2315 299.643 97.366 300.034 97.448C303.238 98.096 304.322 95.84 303.152 95.224ZM291.23 103.744C292.282 104.446 292.652 104.58 296.326 106.68C296.836 106.962 297.058 106.644 298.326 105.814V107.954C298.326 108.135 298.398 108.308 298.526 108.436C298.654 108.564 298.827 108.636 299.008 108.636C299.189 108.636 299.363 108.564 299.49 108.436C299.618 108.308 299.69 108.135 299.69 107.954V104.554C299.689 104.435 299.658 104.317 299.598 104.214C299.538 104.11 299.453 104.024 299.35 103.964C299.247 103.903 299.13 103.871 299.01 103.869C298.891 103.867 298.773 103.897 298.668 103.954C297.996 104.398 297.336 104.842 296.668 105.286L292.312 102.772C292.599 101.727 293.264 100.827 294.178 100.246C294.88 99.768 294.234 98.574 293.484 99.062C292.353 99.7972 291.49 100.879 291.026 102.146C290.846 102.706 290.754 103.466 291.23 103.744ZM309.478 99.468C308.748 98.978 308.068 100.174 308.794 100.65C309.703 101.242 310.367 102.144 310.66 103.188L306.304 105.702C305.632 105.258 304.972 104.814 304.304 104.37C304.2 104.309 304.081 104.278 303.961 104.278C303.84 104.278 303.721 104.311 303.617 104.372C303.513 104.433 303.427 104.52 303.368 104.625C303.309 104.73 303.278 104.849 303.28 104.97V108.37C303.28 108.551 303.352 108.724 303.48 108.852C303.608 108.98 303.781 109.052 303.962 109.052C304.143 109.052 304.317 108.98 304.444 108.852C304.572 108.724 304.644 108.551 304.644 108.37V106.23C305.894 107.052 306.122 107.38 306.644 107.096C307.792 106.436 311.16 104.512 311.682 104.194C311.886 104.037 312.033 103.817 312.099 103.568C312.164 103.319 312.146 103.055 312.046 102.818C311.613 101.433 310.703 100.247 309.478 99.468Z" fill="#1D1D1B"/>
<path d="M295.87 76.2461C296.654 65.3921 296.964 32.3461 296.964 21.5561C296.994 20.2121 299.41 20.3381 227.014 18.9561C226.774 18.9612 226.546 19.0587 226.376 19.2282C226.207 19.3978 226.109 19.6263 226.104 19.8661L224.058 78.3821C224.06 78.6228 224.157 78.853 224.327 79.0232C224.497 79.1934 224.727 79.29 224.968 79.2921C226.88 79.3761 277.5 81.5321 287.19 81.9441C276.404 94.6741 286.852 114.964 303.39 113.442C308.1 112.861 312.446 110.613 315.642 107.106C318.838 103.599 320.674 99.0632 320.816 94.3201C321.034 82.0821 308.14 72.6481 295.87 76.2461ZM278.982 79.7601L246.518 78.3501C246.132 69.9661 247.518 58.8381 253.748 53.2141C253.556 53.6048 253.455 54.0342 253.453 54.4697C253.451 54.9052 253.547 55.3355 253.736 55.7281C254.6 57.328 256.444 56.7281 257.866 55.8861C258.622 59.1941 261.026 59.3161 262.246 57.7421C262.741 56.9722 262.998 56.0733 262.984 55.1581C262.99 55.0351 262.971 54.9122 262.928 54.7969C262.884 54.6816 262.818 54.5763 262.733 54.4872C262.648 54.3981 262.546 54.3273 262.433 54.2788C262.32 54.2304 262.198 54.2054 262.075 54.2054C261.952 54.2054 261.83 54.2304 261.717 54.2788C261.604 54.3273 261.502 54.3981 261.417 54.4872C261.332 54.5763 261.266 54.6816 261.223 54.7969C261.18 54.9122 261.16 55.0351 261.166 55.1581C261.176 55.6415 261.074 56.1206 260.868 56.5581C260.818 56.6531 260.746 56.7342 260.657 56.794C260.568 56.8537 260.465 56.8902 260.358 56.9001C260.057 56.6449 259.842 56.3024 259.744 55.9201C259.563 55.3983 259.495 54.8441 259.544 54.2941C259.543 54.1348 259.5 53.9785 259.42 53.841C259.339 53.7034 259.224 53.5893 259.086 53.51C258.948 53.4307 258.791 53.389 258.632 53.389C258.473 53.389 258.316 53.4307 258.178 53.5101C257.365 54.1858 256.407 54.6649 255.378 54.9101C255.012 54.8961 255.378 53.9321 255.674 53.5101C256.052 52.9341 256.81 51.9101 256.73 51.1881C257.026 51.0401 257.33 50.9041 257.652 50.7881C259.437 51.8701 261.481 52.4488 263.568 52.4625C265.655 52.4762 267.707 51.9246 269.506 50.8661C270.001 51.0944 270.48 51.3571 270.938 51.6521C270.757 51.6447 270.578 51.6913 270.424 51.786C270.269 51.8806 270.146 52.019 270.071 52.1836C269.995 52.3482 269.97 52.5315 269.999 52.7104C270.027 52.8892 270.109 53.0555 270.232 53.1881C270.511 53.5712 270.683 54.0214 270.732 54.4929C270.78 54.9643 270.703 55.4401 270.508 55.8721C269.81 55.5536 269.206 55.0596 268.756 54.4381C268.626 54.3148 268.463 54.2319 268.287 54.1994C268.111 54.167 267.93 54.1864 267.765 54.2552C267.599 54.3241 267.458 54.4394 267.357 54.5873C267.256 54.7351 267.2 54.9091 267.196 55.0881C267.236 55.5921 267.326 56.6881 266.82 56.7601C266.464 56.8041 265.734 55.3921 265.592 55.0541C265.525 54.8267 265.371 54.6347 265.164 54.5193C264.957 54.4038 264.712 54.374 264.484 54.4361C264.255 54.4983 264.059 54.6476 263.939 54.852C263.819 55.0564 263.783 55.2998 263.84 55.5301C264.352 56.7701 265.308 58.6821 266.922 58.5561C267.298 58.5199 267.659 58.3895 267.971 58.1769C268.283 57.9644 268.537 57.6765 268.708 57.34C268.966 56.826 268.616 56.9121 269.494 57.3741C272.346 58.8301 273.482 54.4721 271.814 52.2541C276.798 56.1161 278.414 63.09 278.982 69.34C279.207 72.8097 279.207 76.2904 278.982 79.7601ZM251.4 41.6101C251.417 41.3816 251.485 41.1599 251.599 40.9612C251.713 40.7625 251.87 40.5918 252.059 40.4616C252.247 40.3314 252.463 40.245 252.689 40.2087C252.915 40.1725 253.146 40.1873 253.366 40.2521C253.541 40.2978 253.727 40.2734 253.884 40.1841C254.041 40.0949 254.158 39.9477 254.208 39.7741C254.621 37.5388 255.808 35.5203 257.56 34.0725C259.313 32.6248 261.519 31.8402 263.792 31.8564C266.065 31.8726 268.26 32.6886 269.992 34.1612C271.723 35.6339 272.881 37.6691 273.262 39.9101C273.291 40.0099 273.342 40.1019 273.412 40.1792C273.481 40.2565 273.567 40.3171 273.663 40.3565C273.759 40.3959 273.863 40.4131 273.967 40.4068C274.07 40.4005 274.171 40.3708 274.262 40.3201C274.543 40.1987 274.853 40.164 275.154 40.2204C275.455 40.2769 275.732 40.4219 275.949 40.6369C276.167 40.8519 276.315 41.127 276.375 41.4269C276.435 41.7269 276.404 42.0379 276.286 42.3201C276.186 42.5085 276.049 42.6754 275.884 42.811C275.719 42.9467 275.529 43.0485 275.325 43.1108C275.121 43.173 274.906 43.1943 274.693 43.1736C274.481 43.1529 274.275 43.0905 274.086 42.9901C273.911 42.9416 273.723 42.9647 273.565 43.0543C273.407 43.1439 273.291 43.2928 273.242 43.4681C271.072 53.4681 256.386 53.7501 254.166 43.5941C254.117 43.4202 254.001 43.2728 253.844 43.1834C253.687 43.094 253.501 43.0699 253.326 43.1161C253.097 43.1877 252.853 43.2025 252.617 43.1593C252.38 43.1161 252.158 43.0162 251.968 42.8681C251.779 42.72 251.628 42.5282 251.529 42.309C251.43 42.0899 251.386 41.8501 251.4 41.6101ZM280.884 70.6761C280.066 58.0241 276.02 54.7261 276.484 54.7261C277.358 54.5441 278.822 51.0801 277.064 48.3261C277.361 48.5721 277.711 48.7457 278.087 48.8332C278.462 48.9207 278.853 48.9197 279.228 48.8303C279.603 48.7408 279.953 48.5655 280.248 48.3179C280.544 48.0704 280.778 47.7576 280.932 47.4041C281.183 47.076 281.354 46.694 281.432 46.2883C281.509 45.8826 281.491 45.4644 281.379 45.067C281.266 44.6695 281.063 44.3038 280.784 43.9988C280.506 43.6938 280.16 43.458 279.774 43.3101C280.33 42.4449 280.676 41.4612 280.783 40.4381C280.89 39.415 280.755 38.3811 280.39 37.4195C280.025 36.4579 279.439 35.5955 278.68 34.9015C277.92 34.2076 277.009 33.7015 276.018 33.4241C276.142 32.163 275.882 30.8939 275.272 29.7832C274.662 28.6725 273.731 27.7721 272.6 27.2001C271.107 26.4174 269.478 25.9305 267.8 25.7661C265.936 25.7751 264.074 25.6575 262.226 25.4141C260.626 24.9701 258.922 25.0866 257.397 25.7443C255.872 26.402 254.618 27.5614 253.842 29.0301C253.342 29.9641 253.352 32.1261 252.306 32.4441C250.581 32.8233 249.011 33.7157 247.802 35.0041C247.224 35.6645 246.916 36.5192 246.942 37.3967C246.967 38.2743 247.323 39.1099 247.938 39.7361C246.861 40.6084 246.067 41.7821 245.66 43.1074C245.253 44.4326 245.25 45.8492 245.652 47.1761C246.742 49.7693 248.559 51.9919 250.884 53.5761C245.586 59.8941 244.342 70.0421 244.684 78.2801L225.896 77.4661C228 17.4001 227.922 20.8921 227.926 20.8001C229.526 20.8221 295.144 22.4001 295.144 22.4001C295.108 29.9181 294.81 65.9681 294.002 76.9081C292.116 77.6967 290.382 78.8072 288.876 80.1901L280.81 79.8421C281.081 76.7937 281.107 73.7286 280.89 70.6761H280.884ZM319.004 94.3141C318.851 98.1404 317.504 101.823 315.152 104.845C312.8 107.866 309.56 110.076 305.888 111.162C292.526 114.704 280.888 100.696 285.718 87.9221C286.986 84.6668 289.244 81.8915 292.173 79.9873C295.102 78.0831 298.554 77.146 302.044 77.3081C310.744 77.6961 319.2 84.6641 319.01 94.3141H319.004Z" fill="#1D1D1B"/>
<path d="M259.168 40.718C259.341 40.718 259.511 40.6667 259.655 40.5704C259.799 40.4741 259.911 40.3373 259.977 40.1773C260.044 40.0172 260.061 39.8411 260.027 39.6711C259.993 39.5012 259.91 39.3451 259.788 39.2226C259.665 39.1001 259.509 39.0167 259.339 38.9829C259.169 38.9491 258.993 38.9664 258.833 39.0327C258.673 39.099 258.536 39.2113 258.44 39.3554C258.344 39.4994 258.292 39.6688 258.292 39.842C258.292 40.0744 258.384 40.2972 258.549 40.4615C258.713 40.6257 258.936 40.718 259.168 40.718ZM268.15 39.916C268.15 40.1484 268.242 40.3712 268.407 40.5355C268.571 40.6997 268.794 40.792 269.026 40.792C269.258 40.792 269.481 40.6997 269.646 40.5355C269.81 40.3712 269.902 40.1484 269.902 39.916C269.877 39.7014 269.774 39.5034 269.612 39.3598C269.451 39.2161 269.242 39.1367 269.026 39.1367C268.81 39.1367 268.601 39.2161 268.44 39.3598C268.278 39.5034 268.175 39.7014 268.15 39.916ZM145.588 16.936C145.349 16.944 145.122 17.0425 144.954 17.2114C144.785 17.3804 144.686 17.6072 144.678 17.846C144.644 19.782 142.63 76.364 142.63 76.364C142.633 76.6044 142.73 76.8341 142.9 77.0041C143.07 77.1741 143.3 77.2709 143.54 77.274C154.718 77.726 212.628 80.234 212.83 80.22C214.676 80.094 214.83 78.208 215.536 19.564C215.566 18.172 217.912 18.324 145.588 16.936ZM171.764 48.55C172.325 48.9222 172.919 49.2422 173.538 49.506C173.844 50.2558 174.275 50.9483 174.812 51.554C173.812 53.066 172.832 54.59 171.842 56.104C170.356 58.372 169.826 58.504 170.898 60.426C172.685 63.566 174.585 66.6327 176.598 69.626C176.691 69.7757 176.826 69.8955 176.985 69.9709C177.145 70.0464 177.323 70.0744 177.498 70.0517C177.673 70.0289 177.837 69.9563 177.972 69.8425C178.107 69.7288 178.206 69.5787 178.258 69.41C179.661 66.4262 181.226 63.5213 182.946 60.708C184.034 58.672 183.67 58.634 182.558 56.374C181.82 54.872 181.08 53.374 180.34 51.88C180.996 51.3478 181.446 50.604 181.614 49.776C182.487 49.5026 183.324 49.1245 184.106 48.65C190.584 51.822 192.688 59.796 193.342 67.01C193.564 70.5074 193.558 74.0154 193.326 77.512L160.886 76.112C160.41 66.09 162.498 52.464 171.764 48.55ZM176.24 52.696C177.036 53.0438 177.935 53.0767 178.754 52.788C179.414 54.096 181.114 57.56 181.308 57.958C181.432 58.22 181.786 58.656 181.79 58.942C181.79 59.342 178.752 64.108 177.24 67.28C175.562 64.7437 173.968 62.1523 172.462 59.51C172.026 58.748 171.686 59.646 176.24 52.696ZM176.052 50.2C177.165 50.3842 178.299 50.4037 179.418 50.258C179.206 50.5441 178.927 50.7744 178.607 50.9291C178.286 51.0837 177.932 51.1582 177.576 51.146C177.266 51.1179 176.967 51.0177 176.702 50.8535C176.438 50.6892 176.215 50.4655 176.052 50.2ZM168.76 41.2C168.694 40.9696 168.541 40.774 168.333 40.6552C168.124 40.5363 167.878 40.5036 167.646 40.564C167.453 40.6272 167.248 40.6427 167.048 40.6093C166.848 40.5758 166.659 40.4944 166.497 40.3719C166.335 40.2494 166.205 40.0896 166.119 39.9061C166.032 39.7225 165.992 39.5208 166 39.318C166.014 39.1222 166.072 38.9321 166.17 38.7617C166.267 38.5913 166.402 38.445 166.564 38.3337C166.725 38.2223 166.91 38.1487 167.104 38.1183C167.298 38.0879 167.496 38.1015 167.684 38.158C167.916 38.2189 168.163 38.1862 168.372 38.0668C168.58 37.9475 168.733 37.7512 168.798 37.52C168.808 37.4948 168.815 37.4687 168.82 37.442C169.233 35.2634 170.4 33.2997 172.116 31.8952C173.832 30.4907 175.987 29.7351 178.205 29.7609C180.422 29.7866 182.559 30.5921 184.242 32.0361C185.925 33.4801 187.046 35.4704 187.408 37.658C187.447 37.7909 187.515 37.9133 187.607 38.0161C187.7 38.119 187.814 38.1996 187.943 38.2521C188.071 38.3046 188.209 38.3275 188.347 38.3192C188.485 38.3109 188.619 38.2715 188.74 38.204C188.979 38.1032 189.242 38.0759 189.496 38.1256C189.751 38.1752 189.984 38.2996 190.167 38.4828C190.351 38.666 190.475 38.8996 190.525 39.1539C190.574 39.4081 190.547 39.6714 190.446 39.91C190.262 40.2359 189.957 40.476 189.597 40.5783C189.238 40.6805 188.852 40.6366 188.524 40.456C188.292 40.3929 188.044 40.4243 187.835 40.5435C187.626 40.6627 187.472 40.86 187.408 41.092C185.298 50.8 170.892 51.284 168.76 41.212V41.2ZM212.2 78.332L195.16 77.6C195.432 74.5272 195.464 71.4378 195.254 68.36C194.738 60.454 192.654 51.46 185.744 47.464C187.262 46.1085 188.371 44.355 188.944 42.402C189.671 42.4797 190.402 42.3004 191.011 41.8953C191.62 41.4901 192.067 40.8847 192.276 40.184C192.39 39.6968 192.386 39.1897 192.266 38.7041C192.146 38.2184 191.913 37.7681 191.586 37.3897C191.259 37.0114 190.846 36.7158 190.383 36.5271C189.92 36.3384 189.419 36.262 188.92 36.304C188.876 36.144 188.842 35.974 188.784 35.816C189.95 31.542 188.27 26.866 182.756 24.144C182.203 23.8089 181.554 23.6681 180.912 23.744C180.286 23.88 179.764 24.608 180.06 25.176C175.954 23.718 171.214 22.45 167.558 25.222C167.284 25.3993 167.066 25.6521 166.932 25.95C166.864 26.211 166.876 26.4867 166.967 26.7405C167.059 26.9944 167.225 27.2146 167.444 27.372C167.89 27.6754 168.393 27.8843 168.922 27.986C167.603 27.936 166.301 28.3027 165.202 29.034C163.735 29.6112 162.368 30.4172 161.152 31.422C160.767 31.7744 160.488 32.2274 160.346 32.7299C160.205 33.2325 160.207 33.7645 160.352 34.266C160.99 35.95 163.39 36.7 165.244 37.066C164.764 37.4634 164.419 37.9998 164.256 38.6014C164.093 39.2031 164.121 39.8404 164.336 40.4256C164.55 41.0108 164.941 41.5151 165.454 41.869C165.967 42.223 166.577 42.4092 167.2 42.402C167.732 44.2705 168.753 45.9629 170.158 47.304C160.758 52.034 158.568 65.546 159.044 76.04C150.678 75.68 144.672 75.42 144.484 75.414C144.54 73.788 146.484 20.834 146.498 18.74C148.098 18.762 213.728 20.34 213.728 20.34C213.298 54.428 213.064 74.034 212.2 78.332Z" fill="#1D1D1B"/>
<path d="M172.344 38.8581C172.527 38.8602 172.706 38.8043 172.855 38.6983C173.004 38.5923 173.116 38.4417 173.174 38.2683C173.232 38.0949 173.233 37.9075 173.178 37.7331C173.123 37.5588 173.014 37.4064 172.866 37.2981C172.701 37.1629 172.491 37.095 172.278 37.108C172.066 37.121 171.865 37.2139 171.718 37.3681C171.598 37.4916 171.517 37.6478 171.485 37.8171C171.453 37.9864 171.472 38.1613 171.538 38.3202C171.605 38.479 171.717 38.6147 171.86 38.7104C172.004 38.806 172.172 38.8574 172.344 38.8581ZM182.616 38.2941C182.616 38.5264 182.708 38.7492 182.873 38.9135C183.037 39.0778 183.26 39.1701 183.492 39.1701C183.725 39.1701 183.947 39.0778 184.112 38.9135C184.276 38.7492 184.368 38.5264 184.368 38.2941C184.339 38.0821 184.235 37.8878 184.074 37.747C183.913 37.6063 183.706 37.5287 183.492 37.5287C183.278 37.5287 183.072 37.6063 182.911 37.747C182.749 37.8878 182.645 38.0821 182.616 38.2941ZM262.894 59.8001C262.637 63.8714 262.57 67.9525 262.694 72.0301C262.694 72.2714 262.79 72.5029 262.961 72.6735C263.131 72.8442 263.363 72.9401 263.604 72.9401C263.846 72.9401 264.077 72.8442 264.248 72.6735C264.418 72.5029 264.514 72.2714 264.514 72.0301C264.391 67.9525 264.458 63.8714 264.714 59.8001C264.8 58.6281 262.97 58.6281 262.894 59.8001ZM266.706 63.6801C267.608 64.3721 268.816 63.0101 267.966 62.2461C267 61.3841 265.424 62.6981 266.706 63.6801ZM266.022 66.2501C265.604 67.1361 266.888 67.9581 267.66 67.2401C268.696 66.2781 266.698 64.8161 266.022 66.2501ZM267.784 36.2301C268.173 36.1935 268.562 36.2955 268.882 36.518C269.203 36.7405 269.435 37.0693 269.536 37.4461C269.552 37.5037 269.579 37.5577 269.615 37.605C269.652 37.6523 269.697 37.6919 269.749 37.7216C269.801 37.7514 269.858 37.7706 269.917 37.7782C269.976 37.7858 270.037 37.7817 270.094 37.7661C270.152 37.7504 270.206 37.7236 270.253 37.6871C270.3 37.6506 270.34 37.6052 270.37 37.5534C270.399 37.5015 270.419 37.4444 270.426 37.3851C270.434 37.3259 270.43 37.2657 270.414 37.2081C270.211 36.6752 269.856 36.213 269.395 35.8778C268.933 35.5426 268.384 35.3488 267.814 35.3201C267.698 35.3229 267.587 35.3702 267.504 35.4521C267.422 35.5341 267.373 35.6446 267.37 35.7609C267.366 35.8773 267.407 35.9907 267.484 36.0779C267.561 36.1651 267.668 36.2196 267.784 36.2301ZM257.064 37.5261C257.169 37.5842 257.292 37.6002 257.408 37.5708C257.525 37.5415 257.625 37.469 257.69 37.3681C257.951 37.0299 258.292 36.7615 258.681 36.587C259.071 36.4125 259.498 36.3373 259.924 36.3681C260.204 36.3481 260.244 35.5961 259.81 35.5381C257.812 35.2781 256.262 37.0941 257.064 37.5261ZM259.852 43.1521C259.782 43.103 259.715 43.0496 259.652 42.9921C258.788 42.2081 257.49 43.4941 258.366 44.2781C259.493 45.3502 260.913 46.064 262.446 46.3292C263.979 46.5944 265.556 46.3992 266.978 45.7681C266.539 46.3105 265.943 46.7038 265.272 46.8941C264.072 47.2501 264.802 49.1261 265.806 48.6241C266.903 48.2625 267.859 47.5666 268.541 46.6341C269.222 45.7015 269.595 44.579 269.606 43.4241C269.601 43.2461 269.544 43.0734 269.443 42.9268C269.342 42.7802 269.201 42.6659 269.036 42.5975C268.872 42.5291 268.691 42.5096 268.516 42.5412C268.341 42.5729 268.178 42.6544 268.048 42.7761C267.545 43.3403 266.936 43.7996 266.255 44.1275C265.573 44.4554 264.834 44.6455 264.079 44.6867C263.325 44.728 262.569 44.6196 261.856 44.3679C261.144 44.1163 260.488 43.7262 259.926 43.2201C259.908 43.1915 259.882 43.1681 259.852 43.1521ZM171.912 35.0741C172.069 35.162 172.255 35.185 172.429 35.1383C172.603 35.0916 172.752 34.9789 172.844 34.8241C173.258 33.9961 174.044 34.5201 174.494 34.2681C174.609 34.199 174.701 34.0981 174.759 33.9777C174.817 33.8573 174.839 33.7226 174.822 33.59C174.805 33.4573 174.75 33.3325 174.663 33.2306C174.577 33.1287 174.462 33.0542 174.334 33.0161C172.42 32.6001 170.868 34.5261 171.912 35.0741ZM182.104 34.1141C182.396 34.0884 182.69 34.1365 182.958 34.2539C183.226 34.3713 183.461 34.5543 183.64 34.7861C184.136 35.3861 185.25 34.6041 184.594 33.8301C184.29 33.4693 183.905 33.1855 183.47 33.0017C183.035 32.8178 182.563 32.7392 182.092 32.7721C182.001 32.768 181.91 32.7825 181.825 32.8148C181.739 32.847 181.661 32.8964 181.595 32.9598C181.53 33.0231 181.478 33.0993 181.442 33.1834C181.407 33.2676 181.389 33.3581 181.39 33.4494C181.391 33.5407 181.41 33.6309 181.447 33.7144C181.484 33.7979 181.537 33.8731 181.604 33.9353C181.671 33.9975 181.75 34.0454 181.836 34.0762C181.922 34.1069 182.013 34.1198 182.104 34.1141ZM173.97 41.5141C173.976 41.7218 174.051 41.9218 174.182 42.0825C174.314 42.2432 174.496 42.3556 174.698 42.4021C174.763 42.8611 174.92 43.3025 175.158 43.7C175.397 44.0976 175.712 44.4434 176.087 44.7169C176.461 44.9904 176.887 45.1861 177.338 45.2924C177.789 45.3988 178.257 45.4136 178.714 45.3361C180.998 44.9361 180.8 41.2501 179.544 40.7361C179.168 40.5681 179.222 40.6221 174.88 40.5821C174.638 40.5903 174.408 40.6918 174.238 40.8654C174.069 41.0391 173.973 41.2714 173.97 41.5141ZM324.788 184.274C315.206 179.368 305.2 188.274 300.206 195.898C298.306 198.8 296.206 202.438 296.384 206.024C296.65 211.424 302.67 216.186 312.584 213.69C321.804 211.394 329.458 203.144 330.046 193.852C330.304 191.904 329.933 189.924 328.988 188.201C328.042 186.478 326.57 185.102 324.788 184.274ZM308.556 189.336C311.26 187.136 316.556 183.524 319.842 184.706C319.772 185.616 318.51 186.424 317.964 187.14C317.629 187.798 317.245 188.429 316.814 189.028C315.838 189.984 313.59 190.038 313.048 191.94C310.922 191.69 308.796 191.212 306.634 191.042C306.952 191.054 308.26 189.576 308.556 189.336ZM304.7 212.28C303.199 212.085 301.789 211.451 300.648 210.457C299.506 209.463 298.684 208.154 298.284 206.694C297.484 202.35 302.114 195.87 304.996 192.694C307.667 192.835 310.322 193.188 312.936 193.752C313.092 194.376 313.41 194.948 313.858 195.41C314.305 195.871 314.867 196.206 315.487 196.381C316.106 196.555 316.76 196.563 317.383 196.403C318.006 196.243 318.576 195.921 319.034 195.47C325.38 197.72 326.22 199.07 327.086 198.916C323.486 208.128 313.05 213.954 304.7 212.28ZM328.258 193.08C328.241 194.564 328.016 196.039 327.588 197.46C327.532 197.395 327.464 197.341 327.388 197.3C324.983 195.962 322.472 194.825 319.88 193.9C320.033 193.389 320.067 192.849 319.978 192.322C319.889 191.796 319.681 191.297 319.368 190.864C318.73 190.01 318.23 190.226 318.744 189.202C319.677 187.655 320.873 186.285 322.28 185.152C326.778 186.834 328.286 189.458 328.258 193.078V193.08Z" fill="#1D1D1B"/>
<path d="M354.514 150.226C356.81 149.46 359.956 150.21 365.344 147.108C367.084 146.096 369.756 144.508 369.404 142.138C369.018 139.578 366.128 138.952 364.004 139.464C360.429 140.489 357.155 142.362 354.46 144.924C354.438 144.481 354.404 144.038 354.358 143.594C355.91 139.642 361.134 137.128 363.606 131.08C364.574 128.704 365.688 124.28 362.266 123.242C358.666 122.15 356.624 126.178 355.314 128.76C354.323 130.711 353.439 132.714 352.664 134.76C352.378 133.828 352.064 132.906 351.72 131.996C349.644 126.574 345.362 123.154 343.426 124.476C341.808 125.594 342.71 129.732 343.574 131.758C345.398 135.393 347.949 138.615 351.07 141.222C351.224 141.363 351.42 141.449 351.628 141.468C351.836 141.486 352.044 141.436 352.22 141.324C352.596 143.962 352.5 143.272 352.288 144.202C349.203 142.194 345.878 140.581 342.39 139.402C341.818 139.093 341.183 138.916 340.533 138.887C339.883 138.857 339.234 138.974 338.636 139.23C338.187 139.539 337.825 139.959 337.588 140.45C337.351 140.941 337.246 141.486 337.284 142.03C337.594 146.778 347.018 151.564 352.732 148.718C352.732 148.866 352.732 149.014 352.72 149.162C352.14 149.567 351.697 150.138 351.446 150.8C351.162 151.516 351.822 151.96 352.424 151.88C352.506 152.219 352.533 152.569 352.504 152.916C353.104 152.894 353.704 152.858 354.304 152.836C354.412 151.944 354.48 151.09 354.514 150.226Z" fill="#86F2AA"/>
<path d="M375.432 156.834C375.344 155.417 375.163 154.007 374.888 152.614C374.835 152.422 374.72 152.252 374.562 152.131C374.403 152.01 374.21 151.943 374.01 151.942C369.164 152.16 333.026 153.728 331.274 153.808C330.796 153.808 330.474 153.988 330.396 154.468C328.3 166.434 329.646 179.09 340.318 185.092C347.573 188.666 355.922 189.326 363.648 186.934C374.642 182.562 376.536 168.66 375.432 156.834Z" fill="#FF9F48"/>
<path d="M94.6941 74.884C96.8722 74.1075 99.2109 73.8922 101.494 74.258C99.5111 66.8756 96.8498 59.6924 93.5441 52.8C89.0141 43.6 84.2861 37.164 75.6041 34.304C74.8369 33.9602 74.0061 33.7815 73.1654 33.7794C72.3247 33.7774 71.493 33.952 70.7241 34.292C75.9107 36.8161 80.4901 40.4321 84.1481 44.892C90.7302 53.5314 94.4205 64.0263 94.6941 74.884Z" fill="#AC47F5"/>
<path d="M85.0921 88.4C84.3328 91.5084 84.6562 94.7828 86.0089 97.6826C87.3615 100.582 89.6626 102.934 92.5321 104.35C95.1942 105.569 98.1675 105.937 101.046 105.404C103.925 104.87 106.569 103.462 108.618 101.37C113.326 96.272 113.35 87.844 109.766 82.17C102.2 70.53 87.9781 76.506 85.0921 88.4Z" fill="#AC47F5"/>
</svg>
