<svg width="24" height="24" viewBox="0 0 24 24" fill="none" xmlns="http://www.w3.org/2000/svg">
<g id="Frame">
<path id="Vector" d="M10.9922 14.805C11.9974 14.1358 12.7605 13.1609 13.1688 12.0244C13.577 10.888 13.6087 9.6503 13.2592 8.49443C12.9096 7.33856 12.1973 6.32587 11.2277 5.60611C10.2581 4.88635 9.08256 4.49774 7.87499 4.49774C6.66742 4.49774 5.4919 4.88635 4.52227 5.60611C3.55264 6.32587 2.84039 7.33856 2.49082 8.49443C2.14126 9.6503 2.17295 10.888 2.5812 12.0244C2.98946 13.1609 3.75261 14.1358 4.7578 14.805C2.93951 15.4752 1.38665 16.7153 0.330923 18.3403C0.275438 18.4228 0.236898 18.5155 0.217543 18.613C0.198188 18.7105 0.198405 18.8108 0.21818 18.9082C0.237956 19.0056 0.276896 19.0981 0.332737 19.1804C0.388578 19.2626 0.460205 19.3329 0.543457 19.3872C0.626708 19.4415 0.719922 19.4787 0.817681 19.4967C0.915439 19.5146 1.01579 19.513 1.11291 19.4918C1.21002 19.4706 1.30196 19.4304 1.38338 19.3734C1.4648 19.3164 1.53407 19.2437 1.58717 19.1597C2.26816 18.1123 3.20001 17.2516 4.29808 16.6558C5.39616 16.06 6.62568 15.7479 7.87499 15.7479C9.1243 15.7479 10.3538 16.06 11.4519 16.6558C12.55 17.2516 13.4818 18.1123 14.1628 19.1597C14.2728 19.3232 14.4427 19.4368 14.6358 19.476C14.829 19.5152 15.0297 19.4769 15.1948 19.3692C15.3598 19.2616 15.4759 19.0933 15.5179 18.9008C15.5598 18.7082 15.5243 18.5069 15.4191 18.3403C14.3633 16.7153 12.8105 15.4752 10.9922 14.805ZM3.74999 10.125C3.74999 9.30918 3.99191 8.51165 4.44517 7.8333C4.89843 7.15494 5.54267 6.62623 6.29642 6.31402C7.05016 6.00181 7.87956 5.92012 8.67973 6.07929C9.47991 6.23845 10.2149 6.63132 10.7918 7.20821C11.3687 7.7851 11.7616 8.5201 11.9207 9.32028C12.0799 10.1204 11.9982 10.9498 11.686 11.7036C11.3738 12.4573 10.8451 13.1016 10.1667 13.5548C9.48836 14.0081 8.69083 14.25 7.87499 14.25C6.78135 14.2488 5.73286 13.8138 4.95954 13.0405C4.18622 12.2671 3.75123 11.2187 3.74999 10.125ZM23.4506 19.3781C23.284 19.4868 23.0811 19.5248 22.8865 19.4838C22.6919 19.4429 22.5215 19.3263 22.4128 19.1597C21.7326 18.1117 20.8009 17.2506 19.7026 16.6551C18.6043 16.0595 17.3744 15.7484 16.125 15.75C15.9261 15.75 15.7353 15.671 15.5947 15.5304C15.454 15.3897 15.375 15.1989 15.375 15C15.375 14.8011 15.454 14.6103 15.5947 14.4697C15.7353 14.329 15.9261 14.25 16.125 14.25C16.7325 14.2495 17.3323 14.1147 17.8817 13.8554C18.431 13.5962 18.9164 13.2188 19.3029 12.7502C19.6895 12.2816 19.9679 11.7334 20.1181 11.1448C20.2682 10.5562 20.2866 9.94168 20.1717 9.34516C20.0569 8.74865 19.8117 8.18486 19.4537 7.69408C19.0957 7.20331 18.6337 6.79766 18.1008 6.50612C17.5678 6.21458 16.9771 6.04435 16.3707 6.00759C15.7644 5.97082 15.1574 6.06844 14.5931 6.29346C14.5011 6.33323 14.4021 6.35416 14.3018 6.35501C14.2016 6.35585 14.1022 6.3366 14.0096 6.29839C13.9169 6.26018 13.8329 6.20379 13.7624 6.13254C13.6919 6.06129 13.6364 5.97664 13.5992 5.88358C13.5619 5.79052 13.5437 5.69094 13.5456 5.59073C13.5476 5.49052 13.5695 5.39171 13.6103 5.30014C13.651 5.20856 13.7097 5.12609 13.7829 5.05758C13.856 4.98907 13.9422 4.93592 14.0362 4.90127C15.3276 4.38626 16.764 4.36773 18.0682 4.84925C19.3724 5.33077 20.4521 6.27823 21.099 7.50885C21.7459 8.73947 21.9141 10.1661 21.5712 11.5134C21.2283 12.8607 20.3986 14.0333 19.2422 14.805C21.0605 15.4752 22.6133 16.7153 23.6691 18.3403C23.7777 18.5069 23.8157 18.7099 23.7747 18.9045C23.7338 19.0991 23.6172 19.2695 23.4506 19.3781Z" fill="#758A88"/>
</g>
</svg>
