<svg width="24" height="24" viewBox="0 0 24 24" fill="none" xmlns="http://www.w3.org/2000/svg">
<g id="Frame">
<path id="Vector" d="M13.5 20.25C13.5 20.4489 13.579 20.6397 13.7197 20.7803C13.8603 20.921 14.0511 21 14.25 21H19.5C19.8978 21 20.2794 20.842 20.5607 20.5607C20.842 20.2794 21 19.8978 21 19.5V4.5C21 4.10218 20.842 3.72064 20.5607 3.43934C20.2794 3.15804 19.8978 3 19.5 3H14.25C14.0511 3 13.8603 3.07902 13.7197 3.21967C13.579 3.36032 13.5 3.55109 13.5 3.75C13.5 3.94891 13.579 4.13968 13.7197 4.28033C13.8603 4.42098 14.0511 4.5 14.25 4.5H19.5V19.5H14.25C14.0511 19.5 13.8603 19.579 13.7197 19.7197C13.579 19.8603 13.5 20.0511 13.5 20.25ZM3.21938 11.4694L6.96937 7.71937C7.11011 7.57864 7.30098 7.49958 7.5 7.49958C7.69902 7.49958 7.88989 7.57864 8.03063 7.71937C8.17136 7.86011 8.25042 8.05098 8.25042 8.25C8.25042 8.44902 8.17136 8.63989 8.03063 8.78063L5.56031 11.25H14.25C14.4489 11.25 14.6397 11.329 14.7803 11.4697C14.921 11.6103 15 11.8011 15 12C15 12.1989 14.921 12.3897 14.7803 12.5303C14.6397 12.671 14.4489 12.75 14.25 12.75H5.56031L8.03063 15.2194C8.17136 15.3601 8.25042 15.551 8.25042 15.75C8.25042 15.949 8.17136 16.1399 8.03063 16.2806C7.88989 16.4214 7.69902 16.5004 7.5 16.5004C7.30098 16.5004 7.11011 16.4214 6.96937 16.2806L3.21938 12.5306C3.14964 12.461 3.09432 12.3783 3.05658 12.2872C3.01884 12.1962 2.99941 12.0986 2.99941 12C2.99941 11.9014 3.01884 11.8038 3.05658 11.7128C3.09432 11.6217 3.14964 11.539 3.21938 11.4694Z" fill="#758A88"/>
</g>
</svg>
