<svg width="370" height="391" viewBox="0 0 370 391" fill="none" xmlns="http://www.w3.org/2000/svg">
<g clip-path="url(#clip0_1_235)">
<rect width="370" height="391" fill="#F6F6F6"/>
<path d="M244.164 94.8548C239.79 106.173 228.309 114.967 222.319 117.966C225.859 106.98 227.386 94.5964 227.986 84.0857C227.986 84.0857 239.13 69.976 243.924 77.2523C244.672 78.3874 245.258 80.03 245.631 82.3231C246.342 86.7157 245.682 90.9375 244.164 94.8548Z" fill="white"/>
<path d="M144.164 116.328C137.7 113.957 126.814 104.009 122.712 93.3367C120.991 88.8565 120.465 84.2472 121.964 80.0161C122.361 78.8995 122.8 77.9906 123.27 77.2569C128.84 68.5734 139.047 84.8147 139.047 84.8147C139.642 94.6471 141.059 106.016 144.164 116.328Z" fill="white"/>
<path d="M228.318 70.0637C228.23 59.7099 223.63 49.8313 215.573 43.3255C206.22 35.7724 197.498 36.6445 197.498 36.6445C197.498 36.6445 189.797 36.1831 184.721 37.1059C183.738 37.2858 182.561 37.3781 181.306 37.4104C176.092 37.5442 169.493 36.6445 169.493 36.6445C169.493 36.6445 160.767 35.7724 151.418 43.3255C143.357 49.8313 138.761 59.7099 138.673 70.0637C138.636 74.1702 138.71 79.2456 139.047 84.8147C139.642 94.6471 141.059 106.016 144.164 116.328C146.859 125.307 150.832 133.479 156.642 139.131H156.647C157.717 140.183 158.852 141.138 160.057 142.001C160.832 142.554 161.589 143.126 162.322 143.726C165.469 146.292 174.657 153.107 183.424 153.18H183.567C192.335 153.107 201.522 146.292 204.669 143.726C205.403 143.126 206.16 142.554 206.935 142.001C209.962 139.832 212.569 137.045 214.816 133.82C214.821 133.815 214.821 133.811 214.821 133.811C217.996 129.252 220.441 123.803 222.319 117.966C225.859 106.98 227.386 94.5964 227.986 84.0857C228.286 78.798 228.35 73.9902 228.318 70.0637ZM160.726 102.163C157.159 102.163 154.265 93.2814 154.265 82.3231C154.265 71.3648 157.159 62.4829 160.726 62.4829C164.293 62.4829 167.186 71.3648 167.186 82.3231C167.186 93.2814 164.293 102.163 160.726 102.163ZM206.87 102.163C203.303 102.163 200.41 93.2814 200.41 82.3231C200.41 71.3648 203.303 62.4829 206.87 62.4829C210.437 62.4829 213.33 71.3648 213.33 82.3231C213.33 93.2814 210.437 102.163 206.87 102.163Z" fill="white"/>
<path d="M317.848 234.585H92.8934C90.3462 234.585 88.2789 236.745 88.2789 239.412V385.943C88.2789 387.078 88.6527 388.116 89.2803 388.942C90.1247 390.054 91.4306 390.769 92.8934 390.769H317.848C320.395 390.769 322.462 388.61 322.462 385.943V239.412C322.462 236.745 320.395 234.585 317.848 234.585ZM206.87 327.327C196.165 327.327 187.489 318.652 187.489 307.948C187.489 297.243 196.165 288.569 206.87 288.569C217.576 288.569 226.251 297.243 226.251 307.948C226.251 318.652 217.576 327.327 206.87 327.327Z" fill="#BABABA"/>
<path d="M181.306 37.4104C176.092 37.5442 169.493 36.6445 169.493 36.6445C169.493 36.6445 160.767 35.7724 151.418 43.3256C143.357 49.8313 138.761 59.7099 138.673 70.0637C138.636 74.1702 138.71 79.2456 139.047 84.8147C139.047 84.8147 128.84 68.5734 123.27 77.257C123.27 77.257 115.966 24.6481 154.265 6.65345C154.265 6.65345 161.173 3.47902 167.269 4.61406C170.758 5.26002 173.983 7.32248 175.492 12.1903C179.645 25.5709 175.118 28.4823 181.306 37.4104Z" fill="#17253F"/>
<path d="M243.924 77.2523C239.13 69.976 227.986 84.0857 227.986 84.0857C228.286 78.798 228.35 73.9902 228.318 70.0637C228.23 59.7099 223.63 49.8313 215.573 43.3255C206.22 35.7724 197.498 36.6445 197.498 36.6445C197.498 36.6445 189.797 36.1831 184.721 37.1059C183.738 37.2858 182.561 37.3781 181.306 37.4104C175.118 28.4823 179.645 25.5708 175.492 12.1902C173.983 7.32245 170.758 5.25999 167.269 4.61403C170.471 4.72938 173.909 3.84811 176.793 2.80073C185.644 -0.41062 195.339 -0.705916 204.208 2.45929C243.14 16.3382 243.915 76.5556 243.924 77.2523Z" fill="#17253F"/>
<path d="M89.2803 388.942L79.147 376.918L77.6011 375.086C75.9814 373.167 77.3473 370.237 79.853 370.237H88.2789V385.943C88.2789 387.078 88.6527 388.116 89.2803 388.942Z" fill="#17253F"/>
<path d="M89.4095 389.099L89.2803 388.942" stroke="black" stroke-miterlimit="10"/>
<path d="M167.269 234.585H109.007C113.118 226.741 108.582 207.363 104.891 181.524C104.268 177.155 104.365 171.738 104.96 165.758C107.863 136.381 122.712 93.3367 122.712 93.3367C126.814 104.009 137.7 113.957 144.164 116.328C146.859 125.307 150.832 133.479 156.642 139.131H156.647C156.817 139.458 164.966 154.915 169.142 177.381C172.183 193.77 173.106 213.887 167.269 234.585Z" fill="#17253F"/>
<path d="M253.937 234.585H199.261C196.917 218.482 200.498 194.314 204.812 173.68C209.344 152.045 214.673 134.3 214.816 133.82C214.821 133.815 214.821 133.811 214.821 133.811C217.996 129.252 220.441 123.803 222.319 117.966C228.309 114.967 239.79 106.173 244.164 94.8547C244.164 94.8547 252.332 127.554 256.162 163.963C258.778 188.856 259.369 215.479 253.937 234.585Z" fill="#17253F"/>
<path d="M199.261 234.585H167.269C173.106 213.887 172.183 193.77 169.142 177.381L183.493 186.858L204.812 173.68C200.498 194.314 196.917 218.482 199.261 234.585Z" fill="#BB6CE0"/>
<path d="M214.816 133.82C214.673 134.3 209.344 152.045 204.812 173.68L183.493 186.858L169.142 177.381C164.966 154.915 156.817 139.458 156.647 139.135C157.717 140.183 158.852 141.138 160.057 142.001C160.832 142.554 161.589 143.126 162.322 143.726C165.469 146.292 174.657 153.107 183.424 153.18H183.567C192.335 153.107 201.522 146.292 204.669 143.726C205.403 143.126 206.16 142.554 206.935 142.001C209.962 139.832 212.569 137.045 214.816 133.82Z" fill="white"/>
<path d="M43.0574 323.636C43.0574 323.636 61.9489 325.186 75.5938 327.802" stroke="black" stroke-miterlimit="10"/>
<path d="M91.0476 219.359C91.0476 219.359 93.3548 228.587 92.8934 234.585" stroke="black" stroke-miterlimit="10"/>
<path d="M276.087 219.359C276.087 219.359 273.655 231.817 273.95 234.585" stroke="black" stroke-miterlimit="10"/>
<path d="M322.462 323.903C322.462 323.903 329.614 323.631 333.306 324.092" stroke="black" stroke-miterlimit="10"/>
<path d="M332.383 329.634C332.383 329.634 349.456 333.325 351.764 337.478" stroke="black" stroke-miterlimit="10"/>
<path d="M364.684 373.005C357.762 384.079 322.462 377.79 322.462 377.79V239.411C322.462 236.745 320.395 234.585 317.848 234.585H253.937C259.369 215.479 258.778 188.856 256.162 163.963C303.146 163.931 325.923 246.582 335.613 264.576C345.303 282.571 371.606 361.932 364.684 373.005Z" fill="#BB6CE0"/>
<path d="M37.0586 315.792C37.0586 315.792 46.2875 318.099 49.5176 321.79" stroke="black" stroke-miterlimit="10"/>
<path d="M206.87 327.327C217.574 327.327 226.251 318.651 226.251 307.948C226.251 297.245 217.574 288.569 206.87 288.569C196.167 288.569 187.489 297.245 187.489 307.948C187.489 318.651 196.167 327.327 206.87 327.327Z" fill="white"/>
<path d="M109.007 234.585H92.8934C90.3462 234.585 88.2789 236.745 88.2789 239.412V292.5C86.7516 298.471 80.5359 321.896 75.5938 327.802C81.3803 328.914 86.2209 330.211 88.2789 331.669V370.237H79.853C77.3473 370.237 75.9814 373.167 77.6011 375.086L79.147 376.918C69.8396 376.577 48.95 376.212 34.2899 379.004C14.9093 382.695 -4.00995 379.004 1.06594 359.163C6.14183 339.323 2.91172 328.711 13.0635 308.409C21.8679 290.802 56.0101 215.931 64.916 196.367C66.9602 191.878 69.6735 187.716 73.019 184.094C79.1285 177.478 89.8663 168.513 104.956 165.758H104.96C104.365 171.738 104.268 177.155 104.891 181.524C108.582 207.363 113.118 226.741 109.007 234.585Z" fill="#BB6CE0"/>
<path d="M359.604 80.0161H307.119C307.004 73.4596 309.283 68.1627 312.352 64.0193C318.355 55.9125 327.376 52.2305 327.376 52.2305C327.376 52.2305 327.769 55.5665 333.306 55.5665H333.417C338.954 55.5665 339.346 52.2305 339.346 52.2305C339.346 52.2305 348.367 55.9125 354.371 64.0193C357.439 68.1627 359.719 73.4596 359.604 80.0161Z" fill="#BB6CE0"/>
<path d="M323.754 39.0714C323.593 39.0253 320.312 38.1071 319.236 35.8185C318.918 35.1403 318.793 34.3466 319.001 33.4146C319.135 32.824 319.31 32.3719 319.523 32.0304C320.741 30.0464 323.011 31.8643 323.15 31.9797C323.293 33.59 323.454 35.6109 323.616 38.0286C323.639 38.3839 323.685 38.7346 323.754 39.0714Z" fill="white"/>
<path d="M327.376 44.7605V52.2306C327.376 52.2306 318.355 55.9125 312.352 64.0193C318.618 52.1752 319.236 35.8185 319.236 35.8185C320.312 38.1071 323.593 39.0253 323.754 39.0714C324.229 41.4246 325.715 43.3163 327.376 44.7605Z" fill="#17253F"/>
<path d="M347.486 35.8185C346.411 38.1071 343.13 39.0253 342.969 39.0714C343.038 38.7346 343.084 38.3839 343.107 38.0286C343.269 35.6109 343.43 33.59 343.573 31.9843C343.712 31.869 345.871 30.1341 347.112 31.892C347.357 32.2427 347.569 32.7364 347.721 33.4146C347.929 34.3467 347.805 35.1403 347.486 35.8185Z" fill="white"/>
<path d="M354.371 64.0193C348.367 55.9125 339.346 52.2306 339.346 52.2306V44.7605C341.007 43.3163 342.493 41.4246 342.969 39.0714C343.13 39.0253 346.411 38.1071 347.486 35.8185C347.486 35.8185 348.104 52.1752 354.371 64.0193Z" fill="#17253F"/>
<path d="M339.346 44.7604V52.2305C339.346 52.2305 338.954 55.5664 333.417 55.5664H333.306C327.769 55.5664 327.376 52.2305 327.376 52.2305V44.7604C330.104 47.1274 333.306 48.2855 333.306 48.2855H333.417C333.417 48.2855 336.619 47.1274 339.346 44.7604Z" fill="white"/>
<path d="M342.396 24.8926C340.726 22.7932 337.911 20.4585 334.57 22.521C334.238 22.7793 333.938 22.987 333.712 23.1392C333.703 23.1438 333.694 23.1485 333.684 23.1577C333.449 23.3099 333.306 23.393 333.306 23.393C329.462 19.9279 326.181 22.5579 324.326 24.8926C323.26 26.2306 322.762 27.9286 322.933 29.6311C322.997 30.2771 323.071 31.0569 323.15 31.9797C323.293 33.5899 323.454 35.6109 323.616 38.0286C323.639 38.3839 323.685 38.7346 323.754 39.0714C324.229 41.4245 325.715 43.3163 327.376 44.7605C330.104 47.1274 333.306 48.2856 333.306 48.2856H333.417C333.417 48.2856 336.619 47.1274 339.346 44.7605C341.007 43.3163 342.493 41.4245 342.969 39.0714C343.038 38.7346 343.084 38.3839 343.107 38.0286C343.268 35.6109 343.43 33.5899 343.573 31.9843C343.652 31.0615 343.725 30.2771 343.79 29.6311C343.961 27.9286 343.458 26.2306 342.396 24.8926ZM327.999 36.6444C327.109 36.6444 326.384 34.5773 326.384 32.0304C326.384 29.4835 327.109 27.4164 327.999 27.4164C328.89 27.4164 329.614 29.4835 329.614 32.0304C329.614 34.5773 328.89 36.6444 327.999 36.6444ZM338.723 36.6444C337.833 36.6444 337.108 34.5773 337.108 32.0304C337.108 29.4835 337.833 27.4164 338.723 27.4164C339.614 27.4164 340.338 29.4835 340.338 32.0304C340.338 34.5773 339.614 36.6444 338.723 36.6444Z" fill="white"/>
<path d="M327.999 36.6444C328.891 36.6444 329.614 34.5786 329.614 32.0304C329.614 29.4821 328.891 27.4164 327.999 27.4164C327.107 27.4164 326.384 29.4821 326.384 32.0304C326.384 34.5786 327.107 36.6444 327.999 36.6444Z" fill="black"/>
<path d="M338.723 36.6444C339.615 36.6444 340.338 34.5786 340.338 32.0304C340.338 29.4821 339.615 27.4164 338.723 27.4164C337.831 27.4164 337.108 29.4821 337.108 32.0304C337.108 34.5786 337.831 36.6444 338.723 36.6444Z" fill="black"/>
<path d="M334.57 22.521C334.289 22.6917 334.003 22.8993 333.712 23.1392C333.703 23.1438 333.694 23.1485 333.684 23.1577C333.449 23.3099 333.306 23.393 333.306 23.393C329.462 19.9279 326.181 22.5579 324.326 24.8926C323.26 26.2306 322.762 27.9286 322.933 29.6311C322.997 30.2771 323.071 31.0569 323.15 31.9797C323.011 31.8643 320.741 30.0464 319.523 32.0304C319.523 32.0304 318.54 24.648 321.77 20.4954C325 16.3428 330.537 11.7288 335.613 15.42C336.753 16.2505 337.265 17.1133 337.371 17.9439C337.611 19.7987 335.853 21.5289 334.57 22.521Z" fill="#17253F"/>
<path d="M347.112 31.892C345.871 30.134 343.712 31.8689 343.573 31.9843C343.652 31.0615 343.725 30.2771 343.79 29.6311C343.961 27.9286 343.458 26.2306 342.396 24.8925C340.726 22.7932 337.911 20.4585 334.57 22.5209C335.853 21.5289 337.611 19.7987 337.371 17.9438C337.371 17.9438 347.994 13.3022 347.112 31.892Z" fill="#17253F"/>
<path d="M297.083 6.88409V79.7854H307.276C307.161 73.2289 309.426 67.932 312.476 63.7886C318.701 51.9445 319.32 35.5878 319.32 35.5878C319.001 34.9096 318.881 34.1159 319.084 33.1839C319.218 32.5933 319.393 32.1412 319.601 31.7997C319.601 31.7997 318.623 24.4173 321.834 20.2647C325.046 16.1121 330.546 11.4981 335.59 15.1893C336.721 16.0198 337.233 16.8826 337.339 17.7132C337.339 17.7132 347.892 13.0715 347.02 31.6613C347.265 32.012 347.472 32.5057 347.625 33.1839C347.832 34.1159 347.708 34.9096 347.389 35.5878C347.389 35.5878 348.003 51.9445 354.232 63.7886C357.283 67.932 359.548 73.2289 359.433 79.7854H369.534V6.88409H297.087H297.083Z" fill="#EAC5FB"/>
<path d="M333.712 23.1392C333.938 22.987 334.238 22.7794 334.57 22.521C334.289 22.6917 334.003 22.8993 333.712 23.1392ZM333.712 23.1392C333.938 22.987 334.238 22.7794 334.57 22.521C334.289 22.6917 334.003 22.8993 333.712 23.1392ZM333.712 23.1392C333.938 22.987 334.238 22.7794 334.57 22.521C334.289 22.6917 334.003 22.8993 333.712 23.1392ZM333.712 23.1392C333.938 22.987 334.238 22.7794 334.57 22.521C334.289 22.6917 334.003 22.8993 333.712 23.1392ZM333.712 23.1392C333.938 22.987 334.238 22.7794 334.57 22.521C334.289 22.6917 334.003 22.8993 333.712 23.1392ZM333.712 23.1392C333.938 22.987 334.238 22.7794 334.57 22.521C334.289 22.6917 334.003 22.8993 333.712 23.1392ZM333.712 23.1392C333.938 22.987 334.238 22.7794 334.57 22.521C334.289 22.6917 334.003 22.8993 333.712 23.1392ZM333.712 23.1392C333.938 22.987 334.238 22.7794 334.57 22.521C334.289 22.6917 334.003 22.8993 333.712 23.1392ZM296.861 7.11481V80.0161H307.119C307.004 73.4596 309.283 68.1627 312.352 64.0193C318.618 52.1752 319.236 35.8185 319.236 35.8185C318.918 35.1403 318.793 34.3467 319.001 33.4146C319.135 32.824 319.31 32.3719 319.523 32.0304C319.523 32.0304 318.54 24.648 321.77 20.4954C325 16.3428 330.537 11.7288 335.613 15.42C336.753 16.2505 337.265 17.1134 337.371 17.9439C337.371 17.9439 347.994 13.3022 347.112 31.892C347.357 32.2427 347.569 32.7364 347.721 33.4146C347.929 34.3467 347.804 35.1403 347.486 35.8185C347.486 35.8185 348.104 52.1752 354.371 64.0193C357.439 68.1627 359.719 73.4596 359.604 80.0161H369.769V7.11481H296.861ZM334.57 22.521C334.289 22.6917 334.003 22.8993 333.712 23.1392C333.938 22.987 334.238 22.7794 334.57 22.521ZM333.712 23.1392C333.938 22.987 334.238 22.7794 334.57 22.521C334.289 22.6917 334.003 22.8993 333.712 23.1392ZM333.712 23.1392C333.938 22.987 334.238 22.7794 334.57 22.521C334.289 22.6917 334.003 22.8993 333.712 23.1392ZM333.712 23.1392C333.938 22.987 334.238 22.7794 334.57 22.521C334.289 22.6917 334.003 22.8993 333.712 23.1392ZM333.712 23.1392C333.938 22.987 334.238 22.7794 334.57 22.521C334.289 22.6917 334.003 22.8993 333.712 23.1392ZM333.712 23.1392C333.938 22.987 334.238 22.7794 334.57 22.521C334.289 22.6917 334.003 22.8993 333.712 23.1392ZM333.712 23.1392C333.938 22.987 334.238 22.7794 334.57 22.521C334.289 22.6917 334.003 22.8993 333.712 23.1392ZM333.712 23.1392C333.938 22.987 334.238 22.7794 334.57 22.521C334.289 22.6917 334.003 22.8993 333.712 23.1392ZM333.712 23.1392C333.938 22.987 334.238 22.7794 334.57 22.521C334.289 22.6917 334.003 22.8993 333.712 23.1392Z" stroke="black" stroke-linecap="round" stroke-linejoin="round"/>
<path d="M359.604 80.0161H307.119C307.004 73.4596 309.283 68.1627 312.352 64.0193C318.355 55.9125 327.376 52.2305 327.376 52.2305C327.376 52.2305 327.769 55.5665 333.306 55.5665H333.417C338.954 55.5665 339.346 52.2305 339.346 52.2305C339.346 52.2305 348.367 55.9125 354.371 64.0193C357.439 68.1627 359.719 73.4596 359.604 80.0161Z" stroke="black" stroke-linecap="round" stroke-linejoin="round"/>
<path d="M323.754 39.0714C323.593 39.0253 320.312 38.1071 319.236 35.8185C318.918 35.1403 318.793 34.3466 319.001 33.4146C319.135 32.824 319.31 32.3719 319.523 32.0304C320.741 30.0464 323.011 31.8643 323.15 31.9797C323.293 33.59 323.454 35.6109 323.616 38.0286C323.639 38.3839 323.685 38.7346 323.754 39.0714Z" stroke="black" stroke-linecap="round" stroke-linejoin="round"/>
<path d="M323.759 39.0714H323.754" stroke="black" stroke-linecap="round" stroke-linejoin="round"/>
<path d="M323.155 31.9843H323.15" stroke="black" stroke-linecap="round" stroke-linejoin="round"/>
<path d="M327.376 44.7605V52.2306C327.376 52.2306 318.355 55.9125 312.352 64.0193C318.618 52.1752 319.236 35.8185 319.236 35.8185C320.312 38.1071 323.593 39.0253 323.754 39.0714C324.229 41.4246 325.715 43.3163 327.376 44.7605Z" stroke="black" stroke-linecap="round" stroke-linejoin="round"/>
<path d="M325 27.8778C325 27.8778 327.307 23.7252 330.076 26.4936" stroke="black" stroke-linecap="round" stroke-linejoin="round"/>
<path d="M333.684 23.1577C333.597 23.2362 333.504 23.31 333.417 23.393" stroke="black" stroke-linecap="round" stroke-linejoin="round"/>
<path d="M347.486 35.8185C346.411 38.1071 343.13 39.0253 342.969 39.0714C343.038 38.7346 343.084 38.3839 343.107 38.0286C343.269 35.6109 343.43 33.59 343.573 31.9843C343.711 31.869 345.871 30.1341 347.112 31.892C347.357 32.2427 347.569 32.7364 347.721 33.4146C347.929 34.3467 347.804 35.1403 347.486 35.8185Z" stroke="black" stroke-linecap="round" stroke-linejoin="round"/>
<path d="M342.969 39.0714H342.964" stroke="black" stroke-linecap="round" stroke-linejoin="round"/>
<path d="M343.574 31.9843H343.568" stroke="black" stroke-linecap="round" stroke-linejoin="round"/>
<path d="M354.371 64.0193C348.367 55.9125 339.346 52.2306 339.346 52.2306V44.7605C341.007 43.3163 342.493 41.4246 342.969 39.0714C343.13 39.0253 346.411 38.1071 347.486 35.8185C347.486 35.8185 348.104 52.1752 354.371 64.0193Z" stroke="black" stroke-linecap="round" stroke-linejoin="round"/>
<path d="M337.062 41.7198C337.062 41.7198 336.139 43.5655 333.371 43.5655H333.26C330.491 43.5655 329.568 41.7198 329.568 41.7198" stroke="black" stroke-linecap="round" stroke-linejoin="round"/>
<path d="M341.723 27.8778C341.723 27.8778 339.415 23.7252 336.647 26.4936" stroke="black" stroke-linecap="round" stroke-linejoin="round"/>
<path d="M334.215 36.8751L333.338 37.2996H333.297L332.42 36.8751" stroke="black" stroke-linecap="round" stroke-linejoin="round"/>
<path d="M339.346 44.7605V52.2306C339.346 52.2306 338.954 55.5665 333.417 55.5665H333.306C327.769 55.5665 327.376 52.2306 327.376 52.2306V44.7605C330.104 47.1275 333.306 48.2856 333.306 48.2856H333.417C333.417 48.2856 336.619 47.1275 339.346 44.7605Z" stroke="black" stroke-linecap="round" stroke-linejoin="round"/>
<path d="M342.396 24.8926C340.726 22.7932 337.911 20.4585 334.57 22.521C334.238 22.7793 333.938 22.987 333.712 23.1392C333.703 23.1438 333.694 23.1485 333.684 23.1577C333.449 23.3099 333.306 23.393 333.306 23.393C329.462 19.9279 326.181 22.5579 324.326 24.8926C323.26 26.2306 322.762 27.9286 322.933 29.6311C322.997 30.2771 323.071 31.0569 323.15 31.9797C323.293 33.5899 323.454 35.6109 323.616 38.0286C323.639 38.3839 323.685 38.7346 323.754 39.0714C324.229 41.4245 325.715 43.3163 327.376 44.7605C330.104 47.1274 333.306 48.2856 333.306 48.2856H333.417C333.417 48.2856 336.619 47.1274 339.346 44.7605C341.007 43.3163 342.493 41.4245 342.969 39.0714C343.038 38.7346 343.084 38.3839 343.107 38.0286C343.268 35.6109 343.43 33.59 343.573 31.9843C343.652 31.0615 343.725 30.2771 343.79 29.6311C343.961 27.9286 343.458 26.2306 342.396 24.8926ZM327.999 36.6444C327.109 36.6444 326.384 34.5773 326.384 32.0304C326.384 29.4835 327.109 27.4164 327.999 27.4164C328.89 27.4164 329.614 29.4835 329.614 32.0304C329.614 34.5773 328.89 36.6444 327.999 36.6444ZM338.723 36.6444C337.833 36.6444 337.108 34.5773 337.108 32.0304C337.108 29.4835 337.833 27.4164 338.723 27.4164C339.614 27.4164 340.338 29.4835 340.338 32.0304C340.338 34.5773 339.614 36.6444 338.723 36.6444Z" stroke="black" stroke-linecap="round" stroke-linejoin="round"/>
<path d="M327.999 36.6445C328.891 36.6445 329.614 34.5787 329.614 32.0304C329.614 29.4822 328.891 27.4164 327.999 27.4164C327.107 27.4164 326.384 29.4822 326.384 32.0304C326.384 34.5787 327.107 36.6445 327.999 36.6445Z" stroke="black" stroke-linecap="round" stroke-linejoin="round"/>
<path d="M338.723 36.6445C339.615 36.6445 340.338 34.5787 340.338 32.0304C340.338 29.4822 339.615 27.4164 338.723 27.4164C337.831 27.4164 337.108 29.4822 337.108 32.0304C337.108 34.5787 337.831 36.6445 338.723 36.6445Z" stroke="black" stroke-linecap="round" stroke-linejoin="round"/>
<path d="M334.57 22.521C334.289 22.6917 334.003 22.8993 333.712 23.1392C333.703 23.1438 333.694 23.1485 333.684 23.1577C333.449 23.3099 333.306 23.393 333.306 23.393C329.462 19.9279 326.181 22.5579 324.326 24.8926C323.26 26.2306 322.762 27.9286 322.933 29.6311C322.997 30.2771 323.071 31.0569 323.15 31.9797C323.011 31.8643 320.741 30.0464 319.523 32.0304C319.523 32.0304 318.54 24.648 321.77 20.4954C325 16.3428 330.537 11.7288 335.613 15.42C336.753 16.2505 337.265 17.1133 337.371 17.9439C337.611 19.7987 335.853 21.5289 334.57 22.521Z" stroke="black" stroke-linecap="round" stroke-linejoin="round"/>
<path d="M347.112 31.892C345.871 30.1341 343.712 31.869 343.573 31.9843C343.652 31.0615 343.725 30.2771 343.79 29.6312C343.961 27.9286 343.458 26.2307 342.396 24.8926C340.726 22.7932 337.911 20.4585 334.57 22.521C335.853 21.529 337.611 19.7987 337.371 17.9439C337.371 17.9439 347.994 13.3022 347.112 31.892Z" stroke="black" stroke-linecap="round" stroke-linejoin="round"/>
<path d="M321.327 69.5607C321.327 69.5607 320.072 77.2477 320.459 80.0161" stroke="black" stroke-miterlimit="10"/>
<path d="M345.303 69.5607C345.303 69.5607 346.559 77.2477 346.171 80.0161" stroke="black" stroke-miterlimit="10"/>
<path d="M369.769 89.2441V162.145H359.604C359.95 142.767 339.346 134.36 339.346 134.36V127.222C340.652 126.198 341.935 124.786 342.886 122.852H342.89C343.093 122.751 349.443 119.623 348.534 115.083C348.427 114.561 348.294 114.146 348.137 113.818C348.049 111.816 345.76 111.165 346.725 108.927C347.708 106.648 353.443 111.687 353.443 111.687C353.443 102.062 345.742 107.839 343.218 104.378C340.698 100.918 354.408 94.8409 354.408 94.8409C349.11 91.9525 335.632 102.062 333.707 100.133C331.779 98.2091 338.28 94.827 338.28 94.827C329.854 89.0365 325.041 103.021 322.153 102.062C319.264 101.097 314.447 102.542 316.468 103.423C318.212 104.184 318.392 111.087 318.406 112.955C317.935 113.361 317.617 114.155 317.617 115.544C317.617 121.081 323.943 122.46 323.943 122.46C324.843 124.444 326.089 125.912 327.376 126.982V134.36C327.376 134.36 306.773 142.767 307.119 162.145H296.861V89.2441H369.769Z" fill="#EAC5FB"/>
<path d="M339.346 127.222V134.36C339.346 134.36 338.954 137.696 333.417 137.696H333.306C327.769 137.696 327.376 134.36 327.376 134.36V126.987C330.247 129.381 333.338 129.857 333.338 129.857H333.675C333.675 129.857 336.564 129.414 339.346 127.222Z" fill="white"/>
<path d="M359.604 162.145H307.119C306.773 142.767 327.376 134.36 327.376 134.36C327.376 134.36 327.769 137.696 333.306 137.696H333.417C338.954 137.696 339.346 134.36 339.346 134.36C339.346 134.36 359.95 142.767 359.604 162.145Z" fill="#BB6CE0"/>
<path d="M323.943 122.46C323.943 122.46 317.617 121.081 317.617 115.544C317.617 114.155 317.935 113.362 318.406 112.955C319.818 111.733 322.637 113.943 322.637 113.943C322.397 117.514 322.965 120.296 323.943 122.46Z" fill="white"/>
<path d="M342.89 122.853C343.961 120.679 344.611 117.846 344.394 114.16C344.394 114.16 346.923 111.258 348.137 113.814C348.294 114.146 348.427 114.561 348.534 115.083C349.443 119.623 343.093 122.751 342.89 122.853Z" fill="white"/>
<path d="M344.394 114.16C344.376 113.86 344.353 113.551 344.325 113.237C344.325 113.237 343.753 106.367 333.657 106.367H333.361C323.265 106.367 322.693 113.237 322.693 113.237C322.67 113.477 322.651 113.712 322.637 113.943C322.397 117.514 322.965 120.296 323.943 122.46C324.843 124.444 326.089 125.912 327.376 126.982C330.247 129.381 333.338 129.857 333.338 129.857H333.675C333.675 129.857 336.564 129.414 339.346 127.222C340.652 126.198 341.935 124.786 342.886 122.852H342.89C343.961 120.679 344.611 117.846 344.394 114.16ZM328.461 119.235C327.57 119.235 326.846 117.168 326.846 114.621C326.846 112.074 327.57 110.007 328.461 110.007C329.351 110.007 330.076 112.074 330.076 114.621C330.076 117.168 329.351 119.235 328.461 119.235ZM338.151 118.774C337.26 118.774 336.536 116.707 336.536 114.16C336.536 111.613 337.26 109.546 338.151 109.546C339.042 109.546 339.766 111.613 339.766 114.16C339.766 116.707 339.042 118.774 338.151 118.774Z" fill="white"/>
<path d="M328.461 119.235C329.353 119.235 330.076 117.169 330.076 114.621C330.076 112.073 329.353 110.007 328.461 110.007C327.569 110.007 326.846 112.073 326.846 114.621C326.846 117.169 327.569 119.235 328.461 119.235Z" fill="black"/>
<path d="M338.151 118.774C339.043 118.774 339.766 116.708 339.766 114.16C339.766 111.611 339.043 109.546 338.151 109.546C337.259 109.546 336.536 111.611 336.536 114.16C336.536 116.708 337.259 118.774 338.151 118.774Z" fill="black"/>
<path d="M346.725 108.927C345.76 111.165 348.049 111.816 348.137 113.814C346.923 111.258 344.394 114.16 344.394 114.16C344.376 113.86 344.353 113.551 344.325 113.237C344.325 113.237 343.753 106.367 333.657 106.367H333.361C323.265 106.367 322.693 113.237 322.693 113.237C322.67 113.477 322.651 113.712 322.637 113.943C322.637 113.943 319.818 111.733 318.406 112.955C318.392 111.087 318.212 104.184 316.468 103.423C314.447 102.542 319.264 101.097 322.153 102.062C325.041 103.022 329.854 89.0365 338.28 94.827C338.28 94.827 331.779 98.2091 333.707 100.133C335.632 102.062 349.11 91.9525 354.408 94.8409C354.408 94.8409 340.698 100.918 343.218 104.378C345.742 107.839 353.443 102.062 353.443 111.687C353.443 111.687 347.708 106.648 346.725 108.927Z" fill="#17253F"/>
<path d="M339.346 127.222V134.36C339.346 134.36 338.954 137.696 333.417 137.696H333.306C327.769 137.696 327.376 134.36 327.376 134.36V126.987C330.247 129.381 333.338 129.857 333.338 129.857H333.675C333.675 129.857 336.564 129.414 339.346 127.222Z" stroke="black" stroke-linecap="round" stroke-linejoin="round"/>
<path d="M359.604 162.145H307.119C306.773 142.767 327.376 134.36 327.376 134.36C327.376 134.36 327.769 137.696 333.306 137.696H333.417C338.954 137.696 339.346 134.36 339.346 134.36C339.346 134.36 359.95 142.767 359.604 162.145Z" stroke="black" stroke-linecap="round" stroke-linejoin="round"/>
<path d="M323.943 122.46C323.943 122.46 317.617 121.081 317.617 115.544C317.617 114.155 317.935 113.361 318.406 112.955C319.818 111.733 322.637 113.943 322.637 113.943C322.397 117.514 322.965 120.296 323.943 122.46Z" stroke="black" stroke-linecap="round" stroke-linejoin="round"/>
<path d="M342.89 122.853C343.961 120.679 344.611 117.846 344.394 114.16C344.394 114.16 346.923 111.258 348.137 113.814C348.294 114.146 348.427 114.561 348.534 115.083C349.443 119.623 343.093 122.751 342.89 122.853Z" stroke="black" stroke-linecap="round" stroke-linejoin="round"/>
<path d="M369.769 89.2441V162.145H359.604C359.95 142.767 339.346 134.36 339.346 134.36V127.222C340.652 126.198 341.935 124.786 342.886 122.852H342.89C343.093 122.751 349.443 119.623 348.534 115.083C348.427 114.561 348.294 114.146 348.137 113.818C348.049 111.816 345.76 111.165 346.725 108.927C347.708 106.648 353.443 111.687 353.443 111.687C353.443 102.062 345.742 107.839 343.218 104.378C340.698 100.918 354.408 94.8409 354.408 94.8409C349.11 91.9525 335.632 102.062 333.707 100.133C331.779 98.2091 338.28 94.827 338.28 94.827C329.854 89.0365 325.041 103.021 322.153 102.062C319.264 101.097 314.447 102.542 316.468 103.423C318.212 104.184 318.392 111.087 318.406 112.955C317.935 113.361 317.617 114.155 317.617 115.544C317.617 121.081 323.943 122.46 323.943 122.46C324.843 124.444 326.089 125.912 327.376 126.982V134.36C327.376 134.36 306.773 142.767 307.119 162.145H296.861V89.2441H369.769Z" stroke="black" stroke-linecap="round" stroke-linejoin="round"/>
<path d="M334.215 119.004L333.338 119.429H333.297L332.42 119.004" stroke="black" stroke-linecap="round" stroke-linejoin="round"/>
<path d="M321.327 151.69C321.327 151.69 320.072 159.377 320.459 162.145" stroke="black" stroke-miterlimit="10"/>
<path d="M345.303 151.69C345.303 151.69 346.559 159.377 346.171 162.145" stroke="black" stroke-miterlimit="10"/>
<path d="M344.394 114.16C344.376 113.86 344.353 113.551 344.325 113.237C344.325 113.237 343.753 106.367 333.657 106.367H333.361C323.265 106.367 322.693 113.237 322.693 113.237C322.67 113.477 322.651 113.712 322.637 113.943C322.397 117.514 322.965 120.296 323.943 122.46C324.843 124.444 326.089 125.912 327.376 126.982C330.247 129.381 333.338 129.857 333.338 129.857H333.675C333.675 129.857 336.564 129.414 339.346 127.222C340.652 126.198 341.935 124.786 342.886 122.852H342.89C343.961 120.679 344.611 117.846 344.394 114.16ZM328.461 119.235C327.57 119.235 326.846 117.168 326.846 114.621C326.846 112.074 327.57 110.007 328.461 110.007C329.351 110.007 330.076 112.074 330.076 114.621C330.076 117.168 329.351 119.235 328.461 119.235ZM338.151 118.774C337.261 118.774 336.536 116.707 336.536 114.16C336.536 111.613 337.261 109.546 338.151 109.546C339.042 109.546 339.766 111.613 339.766 114.16C339.766 116.707 339.042 118.774 338.151 118.774Z" stroke="black" stroke-linecap="round" stroke-linejoin="round"/>
<path d="M328.461 119.235C329.353 119.235 330.076 117.169 330.076 114.621C330.076 112.073 329.353 110.007 328.461 110.007C327.569 110.007 326.846 112.073 326.846 114.621C326.846 117.169 327.569 119.235 328.461 119.235Z" stroke="black" stroke-linecap="round" stroke-linejoin="round"/>
<path d="M338.151 118.774C339.043 118.774 339.766 116.708 339.766 114.16C339.766 111.611 339.043 109.546 338.151 109.546C337.259 109.546 336.536 111.611 336.536 114.16C336.536 116.708 337.259 118.774 338.151 118.774Z" stroke="black" stroke-linecap="round" stroke-linejoin="round"/>
<path d="M346.725 108.927C345.76 111.165 348.049 111.816 348.137 113.814C346.923 111.258 344.394 114.16 344.394 114.16C344.376 113.86 344.353 113.551 344.325 113.237C344.325 113.237 343.753 106.367 333.657 106.367H333.361C323.265 106.367 322.693 113.237 322.693 113.237C322.67 113.477 322.651 113.712 322.637 113.943C322.637 113.943 319.818 111.733 318.406 112.955C318.392 111.087 318.212 104.184 316.468 103.423C314.447 102.542 319.264 101.097 322.153 102.062C325.041 103.022 329.854 89.0365 338.28 94.827C338.28 94.827 331.779 98.2091 333.707 100.133C335.632 102.062 349.11 91.9525 354.408 94.8409C354.408 94.8409 340.698 100.918 343.218 104.378C345.742 107.839 353.443 102.062 353.443 111.687C353.443 111.687 347.708 106.648 346.725 108.927Z" stroke="black" stroke-linecap="round" stroke-linejoin="round"/>
<path d="M330.537 123.388C330.537 123.388 332.743 126.604 337.639 122.46" stroke="black" stroke-linecap="round" stroke-linejoin="round"/>
<path d="M62.618 28.8329V125.464" stroke="black" stroke-width="2" stroke-linecap="round" stroke-linejoin="round"/>
<path d="M48.3132 65.2836V157.518" stroke="black" stroke-width="2" stroke-linecap="round" stroke-linejoin="round"/>
<path d="M197.498 36.6445C197.498 36.6445 206.224 35.7724 215.573 43.3255C223.63 49.8313 228.23 59.7099 228.318 70.0683C228.48 88.8935 226.362 128.085 206.93 142.001C206.16 142.554 205.403 143.131 204.664 143.731C201.499 146.31 192.233 153.185 183.42 153.185H183.563C174.754 153.185 165.483 146.31 162.318 143.731C161.579 143.131 160.823 142.554 160.052 142.001C140.625 128.08 138.503 88.8935 138.664 70.0683C138.752 59.7099 143.352 49.8359 151.409 43.3255C160.763 35.7724 169.484 36.6445 169.484 36.6445C169.484 36.6445 179.636 38.0287 184.712 37.1059C189.787 36.1831 197.489 36.6445 197.489 36.6445H197.498Z" stroke="black" stroke-miterlimit="10"/>
<path d="M227.986 84.081C227.986 84.081 242.863 65.2467 245.631 82.3185C248.4 99.3903 230.385 113.924 222.319 117.962" stroke="black" stroke-miterlimit="10"/>
<path d="M139.047 84.81C139.047 84.81 127.04 65.7081 121.964 80.0115C116.888 94.3149 134.986 112.955 144.164 116.324" stroke="black" stroke-miterlimit="10"/>
<path d="M123.27 77.2569C123.27 77.2569 115.966 24.648 154.265 6.6534C154.265 6.6534 171.339 -1.19041 175.492 12.1902C179.645 25.5708 175.118 28.4823 181.306 37.4104" stroke="black" stroke-miterlimit="10"/>
<path d="M243.924 77.2569C243.924 77.2569 243.366 16.4213 204.208 2.45929C195.339 -0.705922 185.644 -0.410626 176.789 2.80534C173.905 3.85271 170.467 4.73399 167.269 4.61864" stroke="black" stroke-miterlimit="10"/>
<path d="M322.462 239.412V385.943C322.462 388.61 320.395 390.769 317.848 390.769H92.8934C91.4306 390.769 90.1247 390.054 89.2803 388.942C88.6527 388.116 88.2789 387.078 88.2789 385.943V239.412C88.2789 236.745 90.3462 234.585 92.8934 234.585H317.848C320.395 234.585 322.462 236.745 322.462 239.412Z" stroke="black" stroke-miterlimit="10"/>
<path d="M88.2789 370.237H79.853C77.3473 370.237 75.9814 373.167 77.6011 375.086L79.147 376.918L89.2803 388.942L89.4095 389.099" stroke="black" stroke-miterlimit="10"/>
<path d="M122.712 93.3367C122.712 93.3367 101.199 155.686 104.891 181.524C108.582 207.363 113.118 226.741 109.007 234.585" stroke="black" stroke-miterlimit="10"/>
<path d="M156.642 139.131C156.642 139.131 181.195 185.215 167.269 234.585" stroke="black" stroke-miterlimit="10"/>
<path d="M214.821 133.811C214.821 133.811 194.42 201.364 199.261 234.585" stroke="black" stroke-miterlimit="10"/>
<path d="M244.164 94.8547C244.164 94.8547 267.315 187.522 253.937 234.585" stroke="black" stroke-miterlimit="10"/>
<path d="M169.142 177.376L183.498 186.858L204.812 173.676" stroke="black" stroke-miterlimit="10"/>
<path d="M79.147 376.918C69.8396 376.577 48.95 376.212 34.2899 379.004C14.9093 382.695 -4.00995 379.004 1.06594 359.163C6.14183 339.323 2.91172 328.711 13.0635 308.409C21.8679 290.802 56.0101 215.931 64.916 196.367C66.9602 191.878 69.6735 187.716 73.019 184.094C79.1285 177.478 89.8663 168.513 104.956 165.758" stroke="black" stroke-miterlimit="10"/>
<path d="M43.0574 323.636C43.0574 323.636 81.3573 326.778 88.2789 331.669" stroke="black" stroke-miterlimit="10"/>
<path d="M88.2789 292.034C88.2789 292.034 80.2267 324.743 74.7955 327.65" stroke="black" stroke-miterlimit="10"/>
<path d="M91.0476 219.359C91.0476 219.359 93.3548 228.587 92.8934 234.585" stroke="black" stroke-miterlimit="10"/>
<path d="M276.087 219.359C276.087 219.359 273.655 231.817 273.95 234.585" stroke="black" stroke-miterlimit="10"/>
<path d="M322.462 323.903C322.462 323.903 329.614 323.631 333.306 324.092" stroke="black" stroke-miterlimit="10"/>
<path d="M332.383 329.634C332.383 329.634 349.456 333.325 351.764 337.478" stroke="black" stroke-miterlimit="10"/>
<path d="M322.462 377.79C322.462 377.79 357.762 384.079 364.684 373.005C371.606 361.932 345.303 282.571 335.613 264.576C325.923 246.582 303.146 163.931 256.162 163.963" stroke="black" stroke-miterlimit="10"/>
<path d="M160.726 102.163C164.294 102.163 167.186 93.2805 167.186 82.3231C167.186 71.3656 164.294 62.4828 160.726 62.4828C157.158 62.4828 154.265 71.3656 154.265 82.3231C154.265 93.2805 157.158 102.163 160.726 102.163Z" fill="black"/>
<path d="M206.87 102.163C210.438 102.163 213.33 93.2805 213.33 82.3231C213.33 71.3656 210.438 62.4828 206.87 62.4828C203.302 62.4828 200.41 71.3656 200.41 82.3231C200.41 93.2805 203.302 102.163 206.87 102.163Z" fill="black"/>
<path d="M147.805 60.6373C147.805 60.6373 167.601 50.0251 171.547 62.4829" stroke="black" stroke-width="1.2" stroke-linecap="round" stroke-linejoin="round"/>
<path d="M219.537 60.6373C219.537 60.6373 199.741 50.0251 195.795 62.4829" stroke="black" stroke-width="1.2" stroke-linecap="round" stroke-linejoin="round"/>
<path d="M215.638 55.5619C215.638 55.5619 221.618 56.134 222.319 60.2313" stroke="black" stroke-width="1.2" stroke-linecap="round" stroke-linejoin="round"/>
<path d="M166.724 125.016C166.724 125.016 181.491 134.812 199.948 125.409" stroke="black" stroke-linecap="round" stroke-linejoin="round"/>
<path d="M188.412 108.623L183.336 110.759L178.261 108.623" stroke="black" stroke-linecap="round" stroke-linejoin="round"/>
<path d="M238.151 82.3231L229.481 104.009" stroke="black" stroke-width="1.2" stroke-linecap="round" stroke-linejoin="round"/>
<path d="M128.425 82.3231L137.095 104.009" stroke="black" stroke-width="1.2" stroke-linecap="round" stroke-linejoin="round"/>
<path d="M37.0586 315.792C37.0586 315.792 46.2875 318.099 49.5176 321.79" stroke="black" stroke-miterlimit="10"/>
<path d="M181.537 191.615L185.676 195.754" stroke="black" stroke-width="1.2" stroke-linecap="round" stroke-linejoin="round"/>
<path d="M185.676 191.615L181.537 195.754" stroke="black" stroke-width="1.2" stroke-linecap="round" stroke-linejoin="round"/>
<path d="M206.87 327.327C217.574 327.327 226.251 318.651 226.251 307.948C226.251 297.245 217.574 288.569 206.87 288.569C196.167 288.569 187.489 297.245 187.489 307.948C187.489 318.651 196.167 327.327 206.87 327.327Z" stroke="black" stroke-linecap="round" stroke-linejoin="round"/>
</g>
<defs>
<clipPath id="clip0_1_235">
<rect width="370" height="391" fill="white"/>
</clipPath>
</defs>
</svg>
