<svg width="528" height="432" viewBox="0 0 528 432" fill="none" xmlns="http://www.w3.org/2000/svg">
<g clip-path="url(#clip0_1_628)">
<path d="M481.36 66.2166L479.228 72.5709L477.72 77.066L465.325 113.969L456.71 112.696L409.332 105.692L414.028 91.8119L450.054 99.325L452.6 91.6846L416.573 84.2989L424.826 59.9197L428.052 50.3883L436.056 26.7413L455.094 30.0267L444.964 59.8497L481.36 66.2166Z" fill="#ECECEC"/>
<path d="M436.056 26.7413L428.052 50.3883L377.218 25.3724L385.808 0.318344L436.056 26.7413Z" fill="white"/>
<path d="M428.051 50.3883L424.825 59.9197L373.954 34.8847L377.218 25.3724L428.051 50.3883Z" fill="#BB6CE0"/>
<path d="M373.954 34.8847L359.065 78.3139L409.332 105.692L414.028 91.8119L416.573 84.2989L424.826 59.9197L373.954 34.8847ZM406.15 96.1415L366.064 75.7671L368.609 69.4001L408.696 90.4112L406.15 96.1415Z" fill="white"/>
<path d="M491.413 36.2918L481.36 66.2167L444.964 59.8497L455.094 30.0267L491.413 36.2918Z" fill="#17253F"/>
<path d="M452.6 91.6846L450.054 99.325L414.028 91.8119L416.573 84.2989L452.6 91.6846Z" fill="#17253F"/>
<path d="M408.696 90.4112L406.15 96.1415L366.064 75.7671L368.609 69.4001L408.696 90.4112Z" fill="#BB6CE0"/>
<path d="M509.936 131.427L497.14 159.175L443.692 137.527L456.71 112.696L465.325 113.969L477.72 77.066L509.936 131.427Z" fill="white"/>
<path d="M479.228 72.5709L477.72 77.066L509.936 131.427L527.682 92.958L479.228 72.5709ZM510.82 105.692C506.78 105.692 503.503 102.413 503.503 98.3699C503.503 94.3269 506.78 91.0479 510.82 91.0479C514.861 91.0479 518.138 94.3269 518.138 98.3699C518.138 102.413 514.861 105.692 510.82 105.692Z" fill="#ECECEC"/>
<path d="M510.82 105.692C514.861 105.692 518.137 102.414 518.137 98.3699C518.137 94.3261 514.861 91.0479 510.82 91.0479C506.779 91.0479 503.503 94.3261 503.503 98.3699C503.503 102.414 506.779 105.692 510.82 105.692Z" fill="#BB6CE0"/>
<path d="M164.373 99.7643L147.206 81.1218C144.546 78.2312 140.047 78.0465 137.159 80.7079L95.0617 119.521C92.1793 122.182 91.9948 126.678 94.6545 129.568L111.822 148.217C114.481 151.101 118.98 151.286 121.862 148.625L163.959 109.818C166.848 107.156 167.033 102.655 164.373 99.7643ZM160.975 106.895L119.737 144.913C118.853 145.728 117.478 145.677 116.664 144.792L98.2368 124.78C97.4224 123.895 97.4796 122.52 98.3641 121.705L139.602 83.6813C140.487 82.8727 141.861 82.9236 142.675 83.8086L161.102 103.82C161.917 104.705 161.86 106.08 160.975 106.895Z" fill="#17253F"/>
<path d="M160.975 106.895L119.737 144.913C118.853 145.728 117.478 145.677 116.664 144.792L98.2368 124.78C97.4224 123.895 97.4796 122.52 98.3641 121.705L139.602 83.6813C140.486 82.8727 141.861 82.9236 142.675 83.8086L161.102 103.82C161.917 104.705 161.859 106.08 160.975 106.895Z" fill="#ECECEC"/>
<path d="M127.551 56.8763C124.229 50.0891 110.791 49.8471 97.5306 56.3478C84.2767 62.8422 76.2276 73.6151 79.549 80.4023C81.1843 83.745 85.2756 85.4959 90.5759 85.636L101.367 92.958L106.076 82.4907C107.24 82.0195 108.405 81.5038 109.569 80.9308C122.823 74.4364 130.872 63.6635 127.551 56.8763ZM91.6576 79.078C89.6024 80.0839 87.1272 79.2371 86.1219 77.1806C85.1166 75.1304 85.9628 72.6537 88.018 71.6477C90.0669 70.6417 92.5484 71.4885 93.5474 73.5387C94.5527 75.5952 93.7065 78.072 91.6576 79.078ZM105.37 72.3544C103.321 73.3604 100.839 72.5136 99.834 70.4634C98.8286 68.4069 99.6813 65.9301 101.73 64.9242C103.779 63.9182 106.26 64.765 107.266 66.8215C108.271 68.8717 107.419 71.3484 105.37 72.3544ZM119.082 65.6373C117.033 66.6369 114.558 65.7901 113.552 63.7399C112.547 61.6834 113.393 59.2066 115.442 58.2006C117.497 57.1946 119.973 58.0414 120.978 60.098C121.983 62.1482 121.137 64.6313 119.082 65.6373Z" fill="#BB6CE0"/>
<path d="M91.6576 79.078C89.6024 80.084 87.1272 79.2372 86.1219 77.1806C85.1165 75.1304 85.9628 72.6537 88.018 71.6477C90.0669 70.6417 92.5484 71.4885 93.5474 73.5387C94.5527 75.5952 93.7064 78.072 91.6576 79.078Z" fill="white"/>
<path d="M105.37 72.3544C103.321 73.3604 100.839 72.5136 99.8339 70.4634C98.8285 68.4069 99.6812 65.9302 101.73 64.9242C103.779 63.9182 106.26 64.765 107.266 66.8215C108.271 68.8717 107.418 71.3485 105.37 72.3544Z" fill="white"/>
<path d="M119.082 65.6373C117.033 66.6369 114.558 65.7901 113.552 63.7399C112.547 61.6834 113.393 59.2066 115.442 58.2006C117.497 57.1946 119.972 58.0414 120.978 60.098C121.983 62.1482 121.137 64.6313 119.082 65.6373Z" fill="white"/>
<path d="M506.589 214.567V267.815H443.278V214.567H468.526V242.722L474.933 236.317L481.334 242.722V214.567H506.589Z" fill="#17253F"/>
<path d="M481.334 214.567V242.722L474.933 236.317L468.526 242.722V214.567H481.334Z" fill="#BB6CE0"/>
<path d="M524.647 268.05L524.01 364.828H425.22L425.856 268.05H465.255V311.982L475.252 301.986L485.241 311.982V268.05H524.647Z" fill="#BB6CE0"/>
<path d="M485.241 268.05V311.982L475.252 301.986L465.255 311.982V268.05H485.241Z" fill="#17253F"/>
<path d="M149.7 282.904L101.043 222.864C99.6494 221.145 97.1233 220.883 95.4054 222.278L1.80069 298.23C0.0827093 299.63 -0.184533 302.152 1.20894 303.871L49.8661 363.911C51.2595 365.631 53.7856 365.892 55.5036 364.497L149.108 288.545C150.826 287.151 151.093 284.623 149.7 282.904ZM55.1791 358.124L11.345 304.036L7.96635 299.866L95.7299 228.651L99.1086 232.822L142.943 286.909L55.1791 358.124Z" fill="#BB6CE0"/>
<path d="M99.1085 232.822L95.9207 235.413L95.5517 238.921L58.0869 269.324L54.6255 272.131L17.1607 302.534L13.6548 302.164L11.345 304.036L55.1791 358.124L142.943 286.909L99.1085 232.822ZM53.4102 350.993L39.7808 334.178L123.307 266.407L136.93 283.216L53.4102 350.993Z" fill="#17253F"/>
<path d="M99.1086 232.822L95.9208 235.413L13.6548 302.164L11.3451 304.036L7.96637 299.866L95.7299 228.651L99.1086 232.822Z" fill="white"/>
<path d="M95.9208 235.413L95.5517 238.921L58.0869 269.324L54.6255 272.131L17.1607 302.534L13.6548 302.164L95.9208 235.413Z" fill="#BABABA"/>
<path d="M136.93 283.216L53.4102 350.993L39.7809 334.178L123.307 266.407L136.93 283.216Z" fill="#BB6CE0"/>
<path d="M123.867 345.434L129.447 352.324L128.683 352.941L127.92 353.565L122.339 346.676L120.303 352.769L115.658 336.871L130.242 344.702L123.867 345.434Z" fill="white"/>
<path d="M297.676 63.0331C297.676 63.0331 296.753 62.5684 295.143 61.9317C290.142 59.9452 278.466 56.3096 266.936 59.9133C262.4 61.3268 257.736 62.3009 253.014 62.8612C251.831 62.9949 250.737 63.568 249.967 64.4785C247.867 66.9361 244.539 73.0102 245.761 86.1262C245.773 86.279 245.793 86.4318 245.805 86.591C246.69 95.4156 247.027 102.744 249.209 109.398C250.501 113.358 252.455 117.082 255.566 120.737C258.537 124.22 262.559 127.645 268.075 131.16C268.075 131.16 271.893 133.707 274.438 133.707H274.769C277.314 133.707 281.132 131.16 281.132 131.16C286.91 127.48 291.046 123.902 294.049 120.247C296.925 116.745 298.764 113.18 299.998 109.398C302.181 102.744 302.518 95.4156 303.402 86.591C303.447 86.1453 303.485 85.7124 303.517 85.2794C304.961 67.2863 297.676 63.0331 297.676 63.0331ZM258.531 98.0516C256.425 98.0516 254.713 92.9198 254.713 86.591C254.713 80.2622 256.425 75.1304 258.531 75.1304C260.637 75.1304 262.349 80.2622 262.349 86.591C262.349 92.9198 260.637 98.0516 258.531 98.0516ZM290.346 98.0516C288.239 98.0516 286.528 92.9198 286.528 86.591C286.528 80.2622 288.239 75.1304 290.346 75.1304C292.452 75.1304 294.163 80.2622 294.163 86.591C294.163 92.9198 292.452 98.0516 290.346 98.0516Z" fill="white"/>
<path d="M249.21 109.398C243.063 106.736 233.08 96.1415 234.988 88.5011C235.485 86.5146 236.452 85.4004 237.61 84.8401C240.906 83.242 245.761 86.1262 245.761 86.1262C245.774 86.279 245.793 86.4318 245.805 86.591C246.69 95.4156 247.027 102.744 249.21 109.398Z" fill="white"/>
<path d="M312.616 92.3213C309.434 106.329 299.998 109.398 299.998 109.398C302.181 102.744 302.518 95.4156 303.402 86.591C303.447 86.1453 303.485 85.7124 303.517 85.2794C303.517 85.2794 308.461 82.4779 311.26 83.9996C312.877 84.8846 313.78 87.2022 312.616 92.3213Z" fill="white"/>
<path d="M300.946 43.7412C299.826 47.7205 298.064 51.0759 296.708 52.2093C292.967 55.3291 295.054 61.6706 295.143 61.9253C290.142 59.9452 278.466 56.3096 266.936 59.9133C262.4 61.3268 257.736 62.3009 253.014 62.8612C251.831 62.9949 250.737 63.568 249.967 64.4785C247.867 66.9361 244.539 73.0102 245.761 86.1262C245.761 86.1262 240.906 83.242 237.61 84.8401C235.771 58.9073 237.534 49.6625 246.442 36.9285C255.35 24.1945 281.438 22.9211 294.481 25.5889C302.887 27.3144 302.97 36.5401 300.946 43.7412Z" fill="#17253F"/>
<path d="M311.26 83.9996C308.461 82.4779 303.517 85.2794 303.517 85.2794C304.961 67.2863 297.676 63.0332 297.676 63.0332C297.676 63.0332 296.753 62.5684 295.143 61.9317C295.054 61.6706 292.967 55.3291 296.708 52.2093C298.064 51.076 299.826 47.7205 300.946 43.7412C300.946 43.7412 310.707 40.7487 313.888 49.6625C317.07 58.5763 308.639 75.678 311.26 83.9996Z" fill="#17253F"/>
<path d="M306.393 146.192C269.399 167.318 247.962 150.732 242.458 145.39C248.834 142.194 253.383 139.959 254.077 139.437C256.622 137.527 255.566 120.737 255.566 120.737C258.537 124.22 262.559 127.645 268.075 131.16C268.075 131.16 271.893 133.707 274.438 133.707H274.769C277.314 133.707 281.132 131.16 281.132 131.16C286.91 127.48 291.046 123.902 294.049 120.247C293.756 125.283 293.152 139.15 295.232 140.71C295.919 141.226 300.259 143.264 306.393 146.192Z" fill="white"/>
<path d="M378.154 248.949C378.154 248.949 378.141 248.943 378.109 248.93C377.836 248.822 376.328 248.223 373.935 247.478C373.833 247.447 373.725 247.415 373.617 247.383C364.9 244.702 345.378 240.309 330.744 248.949C331.399 251.362 332.118 253.654 332.831 255.762C332.067 255.864 268.565 264.204 243.896 260.41C242.077 260.13 240.352 259.881 238.73 259.658C238.024 259.55 235.625 250.223 233.08 244.492C231.495 240.927 224.98 234.146 219.374 229.664C215.976 226.945 212.915 225.073 211.49 225.264C207.793 225.761 210.943 232.299 211.07 232.561C206.101 230.103 201.78 229.25 199.992 229.848C199.286 230.084 198.987 230.498 198.968 231.02C191.982 229.161 181.788 231.23 176.361 232.618C174.076 233.204 172.632 233.668 172.632 233.668C172.632 233.668 184.721 187.826 191.084 177.002C195.71 169.139 225.52 153.877 242.458 145.39C247.962 150.732 269.399 167.318 306.393 146.192C323.038 154.132 352.848 168.63 358.429 177.002C365.771 188.023 377.676 246.6 378.141 248.879C378.147 248.924 378.154 248.949 378.154 248.949Z" fill="#BB6CE0"/>
<path d="M338.067 268.687C327.887 280.784 288.437 274.417 255.782 291.742C252.582 293.442 249.407 294.881 246.27 296.09C231.043 302.005 216.778 302.54 205.344 300.796C195.112 299.242 187.146 295.861 182.813 292.881C175.622 287.934 175.412 259.175 175.915 242.703C176.055 238.144 176.246 234.528 176.361 232.618C181.788 231.23 191.981 229.161 198.968 231.02C198.866 233.331 204.224 237.724 204.224 237.724C201.876 237.03 199.916 236.89 198.72 237.489C193.629 240.035 203.492 245.594 203.492 245.594C203.148 245.6 202.824 245.657 202.538 245.766C197.447 247.676 214.207 258.315 214.207 258.315C215.518 258.156 217.789 257.997 221.404 258.092C225.38 258.194 230.986 258.608 238.73 259.658C240.352 259.881 242.077 260.13 243.896 260.41C268.565 264.204 332.067 255.864 332.831 255.762C335.439 263.428 338.067 268.687 338.067 268.687Z" fill="white"/>
<path d="M373.617 247.383C373.553 248.567 373.451 250.35 373.311 252.585C372.249 269.725 368.889 313.256 362.246 313.256C360.293 313.256 353.828 312.982 344.837 312.39C316.453 310.524 262.839 305.513 246.27 296.09C249.407 294.881 252.582 293.442 255.782 291.742C288.437 274.417 327.887 280.784 338.067 268.687C338.067 268.687 335.439 263.428 332.831 255.762C332.118 253.654 331.399 251.362 330.744 248.949C345.378 240.309 364.9 244.702 373.617 247.383Z" fill="white"/>
<path d="M221.404 258.092C217.789 257.997 215.518 258.156 214.207 258.315C214.207 258.315 197.447 247.676 202.538 245.766C202.824 245.657 203.148 245.6 203.492 245.594C209.155 245.435 221.404 258.092 221.404 258.092Z" fill="white"/>
<path d="M238.73 259.658C230.986 258.608 225.38 258.194 221.404 258.092C221.404 258.092 209.155 245.435 203.492 245.594C203.492 245.594 193.629 240.035 198.72 237.489C199.916 236.89 201.876 237.03 204.224 237.724C204.224 237.724 198.866 233.331 198.968 231.02C198.987 230.498 199.286 230.084 199.992 229.848C201.78 229.25 206.101 230.103 211.07 232.561C210.943 232.299 207.793 225.761 211.49 225.264C212.915 225.073 215.976 226.945 219.374 229.664C224.979 234.146 231.495 240.927 233.079 244.492C235.625 250.223 238.023 259.55 238.73 259.658Z" fill="white"/>
<path d="M176.361 232.618C176.246 234.528 176.055 238.144 175.915 242.703C169.654 240.284 172.632 233.668 172.632 233.668C172.632 233.668 174.076 233.204 176.361 232.618Z" fill="#17253F"/>
<path d="M272.835 420.609C273.058 409.792 271.919 397.988 271.919 397.988C275.126 398.121 278.377 398.21 281.654 398.249C283.143 428.485 272.835 420.609 272.835 420.609Z" fill="#17253F"/>
<path d="M353.79 385.801C349.794 388.17 344.468 389.66 344.468 389.66C325.647 396.453 303.11 398.497 281.654 398.249C278.377 398.21 275.126 398.121 271.919 397.988C235.09 396.434 203.81 389.023 203.81 389.023C203.81 389.023 198.383 387.501 194.374 385.094C191.523 383.382 189.392 381.217 190.448 378.836C192.732 373.691 203.218 313.135 205.344 300.796C216.778 302.54 231.043 302.005 246.27 296.09C262.839 305.513 316.453 310.524 344.838 312.39C348.579 333.732 355.979 375.308 357.831 379.472C358.906 381.885 356.698 384.076 353.79 385.801Z" fill="#BB6CE0"/>
<path d="M272.835 420.609C272.752 424.665 272.479 428.575 271.881 431.682H193.674L194.374 385.094C198.383 387.501 203.81 389.023 203.81 389.023C203.81 389.023 235.09 396.434 271.919 397.988C271.919 397.988 273.058 409.792 272.835 420.609Z" fill="#17253F"/>
<path d="M354.757 431.682H271.88C272.479 428.575 272.752 424.665 272.835 420.609C272.835 420.609 283.143 428.485 281.654 398.249C303.11 398.497 325.647 396.453 344.468 389.66C344.468 389.66 349.794 388.17 353.79 385.801C353.809 386.412 354.91 421.698 354.757 431.682Z" fill="#17253F"/>
<path d="M378.109 248.93C377.473 249.911 375.946 251.795 373.312 252.585C373.452 250.35 373.553 248.567 373.617 247.383C373.725 247.415 373.833 247.447 373.935 247.478C376.328 248.223 377.836 248.822 378.109 248.93Z" fill="#17253F"/>
<path d="M303.517 85.2794C303.485 85.7124 303.447 86.1453 303.402 86.591C302.518 95.4156 302.181 102.744 299.998 109.398C298.764 113.18 296.925 116.745 294.049 120.247C291.046 123.902 286.91 127.48 281.132 131.16C281.132 131.16 277.314 133.707 274.769 133.707H274.438C271.893 133.707 268.075 131.16 268.075 131.16C262.559 127.645 258.537 124.22 255.566 120.737C252.455 117.082 250.501 113.358 249.209 109.398C247.027 102.744 246.69 95.4156 245.805 86.591C245.793 86.4318 245.773 86.279 245.761 86.1262C244.539 73.0102 247.867 66.9361 249.967 64.4785C250.737 63.568 251.831 62.9949 253.014 62.8612C257.736 62.3009 262.4 61.3268 266.936 59.9133C278.466 56.3096 290.142 59.9452 295.143 61.9253C296.753 62.5684 297.676 63.0331 297.676 63.0331C297.676 63.0331 304.961 67.2863 303.517 85.2794Z" stroke="black" stroke-linecap="round" stroke-linejoin="round"/>
<path d="M245.761 86.1262C245.761 86.1262 236.897 80.8607 234.988 88.5011C233.08 96.1415 243.063 106.736 249.21 109.398" stroke="black" stroke-linecap="round" stroke-linejoin="round"/>
<path d="M303.517 85.2794C303.517 85.2794 315.797 78.3139 312.616 92.3213C309.434 106.329 299.998 109.398 299.998 109.398" stroke="black" stroke-linecap="round" stroke-linejoin="round"/>
<path d="M295.15 61.9317C295.15 61.9317 292.897 55.3928 296.715 52.2093C300.533 49.0258 307.538 28.263 294.488 25.5889C281.438 22.9148 255.356 24.1945 246.448 36.9285C237.54 49.6625 235.777 58.9073 237.616 84.8464" stroke="black" stroke-linecap="round" stroke-linejoin="round"/>
<path d="M300.946 43.7412C300.946 43.7412 310.707 40.7487 313.888 49.6625C317.07 58.5763 308.633 75.6844 311.26 84.006" stroke="black" stroke-linecap="round" stroke-linejoin="round"/>
<path d="M263.621 115.242C263.621 115.242 272.975 120.336 284.842 115.242" stroke="black" stroke-linecap="round" stroke-linejoin="round"/>
<path d="M271.257 101.235L274.604 102.719L278.262 101.235" stroke="black" stroke-linecap="round" stroke-linejoin="round"/>
<path d="M258.531 98.0516C260.64 98.0516 262.349 92.9205 262.349 86.591C262.349 80.2615 260.64 75.1304 258.531 75.1304C256.423 75.1304 254.713 80.2615 254.713 86.591C254.713 92.9205 256.423 98.0516 258.531 98.0516Z" fill="black"/>
<path d="M290.346 98.0516C292.454 98.0516 294.163 92.9205 294.163 86.591C294.163 80.2615 292.454 75.1304 290.346 75.1304C288.237 75.1304 286.528 80.2615 286.528 86.591C286.528 92.9205 288.237 98.0516 290.346 98.0516Z" fill="black"/>
<path d="M250.259 73.857C250.259 73.857 255.35 66.2167 265.53 72.5836" stroke="black" stroke-linecap="round" stroke-linejoin="round"/>
<path d="M283.346 72.5836C283.346 72.5836 290.346 66.8534 298.617 73.2203" stroke="black" stroke-linecap="round" stroke-linejoin="round"/>
<path d="M306.393 146.192C269.399 167.318 247.962 150.732 242.458 145.39C248.834 142.194 253.383 139.959 254.077 139.437C256.622 137.527 255.566 120.737 255.566 120.737C258.537 124.22 262.559 127.645 268.075 131.16C268.075 131.16 271.893 133.707 274.438 133.707H274.769C277.314 133.707 281.132 131.16 281.132 131.16C286.91 127.48 291.046 123.902 294.049 120.247C293.756 125.283 293.152 139.15 295.232 140.71C295.919 141.226 300.259 143.264 306.393 146.192Z" stroke="black" stroke-linecap="round" stroke-linejoin="round"/>
<path d="M378.154 248.949C378.154 248.949 376.588 248.306 373.935 247.478C365.383 244.811 345.557 240.201 330.744 248.949C331.399 251.362 332.118 253.654 332.831 255.762C332.067 255.864 268.565 264.204 243.896 260.41C242.077 260.13 240.352 259.881 238.73 259.658C238.024 259.55 235.625 250.223 233.08 244.492C231.495 240.927 224.98 234.146 219.374 229.664C215.976 226.945 212.915 225.073 211.49 225.264C207.717 225.773 211.077 232.567 211.077 232.567C206.107 230.103 201.78 229.25 199.992 229.848C199.286 230.084 198.987 230.498 198.968 231.02C191.982 229.161 181.788 231.23 176.361 232.618C174.076 233.204 172.632 233.668 172.632 233.668C172.632 233.668 184.721 187.826 191.084 177.002C195.71 169.139 225.52 153.877 242.458 145.39C247.962 150.732 269.399 167.318 306.393 146.192C323.038 154.132 352.848 168.63 358.429 177.002C365.918 188.24 378.154 248.949 378.154 248.949Z" stroke="black" stroke-linecap="round" stroke-linejoin="round"/>
<path d="M176.361 232.618C176.246 234.528 176.055 238.144 175.915 242.703C175.412 259.175 175.622 287.934 182.813 292.881C192.993 299.885 223.134 309.066 255.782 291.742C288.437 274.417 327.887 280.784 338.067 268.687C338.067 268.687 335.439 263.428 332.831 255.762" stroke="black" stroke-linecap="round" stroke-linejoin="round"/>
<path d="M330.744 248.949C329.388 243.989 328.275 238.507 327.887 233.032" stroke="black" stroke-linecap="round" stroke-linejoin="round"/>
<path d="M212.693 258.582C212.693 258.582 213.125 258.449 214.207 258.315C215.518 258.156 217.789 257.997 221.404 258.092C225.38 258.194 230.986 258.608 238.73 259.658" stroke="black" stroke-linecap="round" stroke-linejoin="round"/>
<path d="M332.837 255.762H332.831" stroke="black" stroke-linecap="round" stroke-linejoin="round"/>
<path d="M246.27 296.09C262.839 305.513 316.453 310.524 344.837 312.39C353.828 312.982 360.293 313.256 362.246 313.256C369.755 313.256 373.07 257.64 373.617 247.383C373.674 246.339 373.7 245.766 373.7 245.766" stroke="black" stroke-linecap="round" stroke-linejoin="round"/>
<path d="M214.207 258.315C214.207 258.315 197.447 247.676 202.538 245.766C207.628 243.856 221.404 258.092 221.404 258.092" stroke="black" stroke-linecap="round" stroke-linejoin="round"/>
<path d="M203.492 245.594C203.492 245.594 193.629 240.035 198.72 237.489C203.81 234.942 222.899 245.766 226.08 255.953" stroke="black" stroke-linecap="round" stroke-linejoin="round"/>
<path d="M227.754 247.478C223.23 240.258 216.733 235.368 211.077 232.567" stroke="black" stroke-linecap="round" stroke-linejoin="round"/>
<path d="M204.224 237.724C204.224 237.724 198.866 233.331 198.968 231.02" stroke="black" stroke-linecap="round" stroke-linejoin="round"/>
<path d="M172.632 233.668C172.632 233.668 169.654 240.284 175.915 242.703" stroke="black" stroke-linecap="round" stroke-linejoin="round"/>
<path d="M220.354 221.571L219.374 229.664" stroke="black" stroke-linecap="round" stroke-linejoin="round"/>
<path d="M344.838 312.39C348.579 333.732 355.979 375.308 357.831 379.472C358.906 381.885 356.698 384.076 353.79 385.801C349.794 388.17 344.468 389.66 344.468 389.66C325.647 396.453 303.11 398.497 281.654 398.249C278.377 398.21 275.126 398.121 271.919 397.988C235.09 396.434 203.81 389.023 203.81 389.023C203.81 389.023 198.383 387.501 194.374 385.094C191.523 383.382 189.392 381.217 190.448 378.836C192.732 373.691 203.218 313.135 205.344 300.796" stroke="black" stroke-linecap="round" stroke-linejoin="round"/>
<path d="M194.374 385.094L193.674 431.682" stroke="black" stroke-linecap="round" stroke-linejoin="round"/>
<path d="M353.79 385.795C353.79 385.795 354.91 421.609 354.757 431.682" stroke="black" stroke-linecap="round" stroke-linejoin="round"/>
<path d="M271.919 397.988C271.919 397.988 273.058 409.792 272.835 420.609C272.752 424.665 272.479 428.575 271.88 431.682" stroke="black" stroke-linecap="round" stroke-linejoin="round"/>
<path d="M272.835 420.609C272.835 420.609 283.143 428.492 281.654 398.249" stroke="black" stroke-linecap="round" stroke-linejoin="round"/>
<path d="M385.808 0.318344L436.056 26.7413L491.413 36.2918L465.325 113.969L409.332 105.692L359.065 78.3139L385.808 0.318344Z" stroke="black" stroke-linecap="round" stroke-linejoin="round"/>
<path d="M436.056 26.7413L409.332 105.692" stroke="black" stroke-linecap="round" stroke-linejoin="round"/>
<path d="M455.094 30.0267L444.964 59.8497L481.366 66.2167" stroke="black" stroke-linecap="round" stroke-linejoin="round"/>
<path d="M377.218 25.3724L428.052 50.3883" stroke="black" stroke-linecap="round" stroke-linejoin="round"/>
<path d="M424.825 59.9197L373.954 34.8847" stroke="black" stroke-linecap="round" stroke-linejoin="round"/>
<path d="M368.609 69.4001L366.064 75.7671L406.15 96.1415L408.696 90.4112L368.609 69.4001Z" stroke="black" stroke-linecap="round" stroke-linejoin="round"/>
<path d="M416.573 84.2989L452.6 91.6846L450.054 99.325L414.034 91.8119" stroke="black" stroke-linecap="round" stroke-linejoin="round"/>
<path d="M456.71 112.696L443.692 137.527L497.14 159.175L527.682 92.958L479.228 72.5709" stroke="black" stroke-linecap="round" stroke-linejoin="round"/>
<path d="M510.82 105.692C514.862 105.692 518.138 102.414 518.138 98.3699C518.138 94.3261 514.862 91.0479 510.82 91.0479C506.779 91.0479 503.503 94.3261 503.503 98.3699C503.503 102.414 506.779 105.692 510.82 105.692Z" stroke="black" stroke-linecap="round" stroke-linejoin="round"/>
<path d="M477.72 77.066L509.942 131.427" stroke="black" stroke-linecap="round" stroke-linejoin="round"/>
<path d="M164.383 99.7669L147.213 81.1223C144.553 78.2339 140.057 78.05 137.17 80.7117L95.0762 119.526C92.1896 122.187 92.0059 126.686 94.6658 129.575L111.835 148.219C114.495 151.108 118.992 151.292 121.878 148.63L163.972 109.816C166.859 107.155 167.043 102.655 164.383 99.7669Z" stroke="black" stroke-linecap="round" stroke-linejoin="round"/>
<path d="M161.11 103.813L142.685 83.806C141.871 82.9216 140.494 82.8653 139.61 83.6803L98.3773 121.7C97.4935 122.515 97.4372 123.893 98.2516 124.777L116.676 144.784C117.49 145.669 118.867 145.725 119.751 144.91L160.984 106.89C161.868 106.075 161.924 104.697 161.11 103.813Z" stroke="black" stroke-linecap="round" stroke-linejoin="round"/>
<path d="M127.551 56.8763C124.229 50.0891 110.791 49.8471 97.5306 56.3478C84.2767 62.8422 76.2276 73.6151 79.549 80.4023C81.1843 83.745 85.2756 85.4959 90.5759 85.636L101.367 92.958L106.076 82.4907C107.24 82.0195 108.405 81.5038 109.569 80.9308C122.823 74.4364 130.872 63.6635 127.551 56.8763ZM86.1219 77.1806C85.1166 75.1304 85.9628 72.6537 88.018 71.6477C90.0669 70.6417 92.5484 71.4885 93.5474 73.5387C94.5527 75.5952 93.7065 78.072 91.6576 79.078C89.6024 80.0839 87.1272 79.2371 86.1219 77.1806ZM105.37 72.3544C103.321 73.3604 100.839 72.5136 99.834 70.4634C98.8286 68.4069 99.6813 65.9301 101.73 64.9242C103.779 63.9182 106.26 64.765 107.266 66.8215C108.271 68.8717 107.419 71.3484 105.37 72.3544ZM119.082 65.6373C117.033 66.6369 114.558 65.7901 113.552 63.7399C112.547 61.6834 113.393 59.2066 115.442 58.2006C117.497 57.1946 119.973 58.0414 120.978 60.098C121.983 62.1482 121.137 64.6313 119.082 65.6373Z" stroke="black" stroke-linecap="round" stroke-linejoin="round"/>
<path d="M93.5474 73.5387C94.5527 75.5952 93.7064 78.072 91.6576 79.078C89.6024 80.084 87.1272 79.2372 86.1219 77.1806C85.1165 75.1304 85.9628 72.6537 88.018 71.6477C90.0669 70.6417 92.5484 71.4885 93.5474 73.5387Z" stroke="black" stroke-linecap="round" stroke-linejoin="round"/>
<path d="M107.266 66.8215C108.271 68.8717 107.419 71.3484 105.37 72.3544C103.321 73.3604 100.839 72.5136 99.834 70.4634C98.8287 68.4069 99.6813 65.9301 101.73 64.9242C103.779 63.9182 106.261 64.765 107.266 66.8215Z" stroke="black" stroke-linecap="round" stroke-linejoin="round"/>
<path d="M119.082 65.6373C117.033 66.6369 114.558 65.7901 113.552 63.7399C112.547 61.6834 113.393 59.2066 115.442 58.2006C117.497 57.1946 119.973 58.0414 120.978 60.098C121.983 62.1482 121.137 64.6313 119.082 65.6373Z" stroke="black" stroke-linecap="round" stroke-linejoin="round"/>
<path d="M91.6576 79.078C89.6024 80.084 87.1272 79.2372 86.1219 77.1806C85.1165 75.1304 85.9628 72.6537 88.018 71.6477C90.0669 70.6417 92.5484 71.4885 93.5474 73.5387C94.5527 75.5952 93.7064 78.072 91.6576 79.078Z" stroke="black" stroke-linecap="round" stroke-linejoin="round"/>
<path d="M105.37 72.3544C103.321 73.3604 100.839 72.5136 99.8339 70.4634C98.8285 68.4069 99.6812 65.9302 101.73 64.9242C103.779 63.9182 106.26 64.765 107.266 66.8215C108.271 68.8717 107.418 71.3485 105.37 72.3544Z" stroke="black" stroke-linecap="round" stroke-linejoin="round"/>
<path d="M119.082 65.6373C117.033 66.6369 114.558 65.7901 113.552 63.7399C112.547 61.6834 113.393 59.2066 115.442 58.2006C117.497 57.1946 119.972 58.0414 120.978 60.098C121.983 62.1482 121.137 64.6313 119.082 65.6373Z" stroke="black" stroke-linecap="round" stroke-linejoin="round"/>
<path d="M95.4077 222.274L1.8042 298.229C0.0846473 299.625 -0.178889 302.151 1.21557 303.871L49.8697 363.907C51.2642 365.628 53.7886 365.891 55.5081 364.496L149.112 288.54C150.831 287.145 151.095 284.619 149.7 282.898L101.046 222.863C99.6517 221.142 97.1273 220.878 95.4077 222.274Z" stroke="black" stroke-linecap="round" stroke-linejoin="round"/>
<path d="M95.7292 228.645L7.96729 299.86L55.1786 358.115L142.941 286.9L95.7292 228.645Z" stroke="black" stroke-linecap="round" stroke-linejoin="round"/>
<path d="M99.115 232.822L11.3451 304.036" stroke="black" stroke-linecap="round" stroke-linejoin="round"/>
<path d="M123.312 266.402L39.7901 334.177L53.4165 350.991L136.938 283.216L123.312 266.402Z" stroke="black" stroke-linecap="round" stroke-linejoin="round"/>
<path d="M13.6548 302.164L17.1607 302.534L54.6255 272.131L58.0869 269.324L95.5517 238.921L95.9208 235.413" stroke="black" stroke-linecap="round" stroke-linejoin="round"/>
<path d="M506.589 214.567V267.815H443.278V214.567H468.526V242.722L474.933 236.317L481.334 242.722V214.567H506.589Z" stroke="black" stroke-linecap="round" stroke-linejoin="round"/>
<path d="M481.334 214.567V242.722L474.933 236.317L468.526 242.722V214.567H481.334Z" stroke="black" stroke-linecap="round" stroke-linejoin="round"/>
<path d="M524.647 268.05L524.01 364.828H425.22L425.856 268.05H465.255V311.982L475.252 301.986L485.241 311.982V268.05H524.647Z" stroke="black" stroke-linecap="round" stroke-linejoin="round"/>
<path d="M485.241 268.05V311.982L475.252 301.986L465.255 311.982V268.05H485.241Z" stroke="black" stroke-linecap="round" stroke-linejoin="round"/>
<path d="M128.683 352.941L129.453 352.324L123.867 345.434L130.249 344.702L115.658 336.871L120.303 352.769L122.339 346.676L127.92 353.565L128.683 352.941Z" stroke="black" stroke-linecap="round" stroke-linejoin="round"/>
<path d="M378.154 248.949C378.154 248.949 376.741 251.91 373.312 252.661" stroke="black" stroke-linecap="round" stroke-linejoin="round"/>
<path d="M238.806 88.5011L244.87 101.974" stroke="black" stroke-linecap="round" stroke-linejoin="round"/>
<path d="M309.772 88.5011L303.708 101.974" stroke="black" stroke-linecap="round" stroke-linejoin="round"/>
</g>
<defs>
<clipPath id="clip0_1_628">
<rect width="528" height="432" fill="white"/>
</clipPath>
</defs>
</svg>
